<svg version="1.1" id="Layer_1" xmlns="http://www.w3.org/2000/svg" xmlns:xlink="http://www.w3.org/1999/xlink" x="0px" y="0px"
	 width="100%" viewBox="0 0 432 416" enable-background="new 0 0 432 416" xml:space="preserve">
<path fill="#000000" opacity="1.000000" stroke="none" 
	d="
M30.818634,223.520828 
	C30.720219,212.570877 29.530130,201.909500 30.987604,191.623245 
	C32.419167,181.519882 33.443550,171.305588 36.186237,161.249969 
	C40.616985,145.005325 46.541534,129.535156 54.788212,114.977257 
	C65.453804,96.149216 78.924026,79.690254 95.769455,65.807831 
	C110.677971,53.521629 126.736229,43.419910 144.466324,35.971752 
	C151.813293,32.885395 159.488251,30.633499 167.210815,28.529526 
	C181.727615,24.574495 196.413406,22.829931 211.464783,22.258396 
	C220.926117,21.899130 230.432968,22.109758 239.607452,23.123766 
	C250.157959,24.289854 260.718842,26.880482 271.111633,30.041338 
	C286.046844,34.583710 299.968933,41.012619 313.153900,49.007889 
	C328.407471,58.257572 342.502411,69.199638 354.185150,82.805702 
	C365.303009,95.753868 375.227386,109.644386 382.380432,125.212044 
	C387.824127,137.059525 392.091064,149.332489 395.664612,161.971588 
	C401.523132,182.692322 402.219147,203.704590 401.027588,224.787598 
	C400.510498,233.936600 398.214935,243.136292 395.843719,252.217590 
	C393.064850,262.860229 389.899597,273.280396 385.311157,283.217377 
	C378.623016,297.701599 370.762665,311.491150 360.120026,323.560638 
	C355.091949,329.262787 350.681091,335.565552 344.909180,340.541107 
	C326.121826,356.736267 306.071838,370.889404 282.548065,379.676392 
	C272.091522,383.582367 261.425201,386.912872 250.584991,388.899506 
	C241.272171,390.606262 231.715805,392.315704 222.003464,391.437378 
	C216.714188,390.959045 211.344650,391.257019 206.014572,391.365448 
	C196.383835,391.561279 187.136093,389.347412 177.752396,387.571564 
	C162.651382,384.713776 148.182220,380.068024 134.597626,373.111328 
	C108.492531,359.742859 86.084991,341.782867 68.373260,318.140747 
	C59.664574,306.516113 51.666763,294.482086 45.861065,281.178101 
	C41.818550,271.914520 39.367214,262.053223 36.407776,252.380234 
	C33.545448,243.024628 33.773113,233.223633 30.818634,223.520828 
M352.639221,240.722473 
	C360.239990,250.457321 367.840729,260.192169 375.787598,270.370361 
	C378.238861,265.547485 379.628906,261.292450 380.727875,256.876282 
	C382.347534,250.367661 383.988953,243.908676 385.168091,237.266129 
	C386.542389,229.523972 388.052521,221.765335 388.511444,213.977783 
	C389.456696,197.938187 386.470581,182.287338 382.913727,166.658737 
	C380.200897,154.738815 376.072174,143.433014 370.853638,132.514175 
	C364.869690,119.993736 357.418579,108.375618 348.761047,97.438927 
	C338.151794,84.036674 325.654510,72.681534 311.379547,63.673141 
	C292.867432,51.990879 273.401215,42.242111 251.181091,38.931755 
	C241.429932,37.479023 231.834259,35.547337 221.898438,35.198479 
	C206.426163,34.655235 191.091888,35.843334 176.233276,39.678097 
	C159.744537,43.933563 144.020523,50.319923 129.091675,58.977329 
	C105.003479,72.946327 85.544312,91.398415 70.841766,114.892075 
	C58.914246,133.951416 50.941422,154.496445 47.020638,176.792648 
	C45.246010,186.884354 45.111496,197.059433 43.496910,207.128265 
	C42.315895,214.493332 46.585468,221.683258 45.387375,229.266983 
	C44.829159,232.800415 45.811043,236.050247 48.236473,239.039307 
	C51.722111,234.392349 55.345905,230.081635 58.398762,225.398697 
	C69.935898,207.701324 82.569756,190.781128 94.861801,173.621704 
	C105.233887,159.142487 115.908722,144.879532 126.500488,130.558533 
	C131.910263,123.244026 138.409424,116.768677 147.475662,114.947212 
	C158.492081,112.733948 168.868530,115.192863 177.037216,123.618843 
	C187.245178,134.148300 194.294235,147.076157 203.212997,158.601074 
	C210.738998,168.326218 217.249695,178.830627 224.583389,188.712875 
	C231.709290,198.315155 238.930450,207.837738 245.644547,217.739929 
	C246.610779,219.164993 248.139252,221.953079 250.258850,219.918839 
	C253.347351,216.954773 257.235657,214.998764 260.187347,211.963776 
	C256.307007,206.332962 253.054794,200.614105 245.903793,198.822067 
	C243.805435,198.296219 241.344894,196.160461 241.147339,194.087601 
	C240.734329,189.754013 238.526886,185.884430 238.624268,181.448990 
	C238.807144,173.121323 238.339828,164.769180 238.783676,156.461426 
	C239.033981,151.776428 239.958176,146.926910 241.641068,142.560959 
	C245.076889,133.647385 253.069778,130.983871 261.593811,130.772446 
	C277.914276,130.367630 294.262665,130.300156 310.578186,130.794724 
	C319.602600,131.068283 327.760437,135.048508 333.311890,142.199570 
	C343.814301,155.728149 350.755157,170.694733 349.432129,188.557281 
	C348.871246,196.130234 344.850128,200.892868 337.346069,201.360321 
	C336.054413,201.440781 334.400940,200.996445 333.723633,202.432053 
	C331.943420,206.205215 328.427979,208.625534 326.244965,211.724289 
	C336.480194,220.203522 345.805847,228.921173 352.639221,240.722473 
M95.689262,300.018494 
	C92.682655,305.917206 87.167572,310.048248 84.234711,316.361603 
	C88.305405,320.292236 90.969368,325.841095 95.342087,329.313782 
	C104.086906,336.258636 112.113693,344.043488 121.536804,350.250061 
	C141.716965,363.541748 163.831085,371.594727 187.244675,376.579285 
	C199.837128,379.260162 212.637985,378.356262 225.373474,378.746948 
	C232.576553,378.967896 239.483521,377.045197 246.440216,376.128754 
	C255.693146,374.909821 264.834991,371.853119 273.777954,368.625092 
	C288.446655,363.330322 302.134705,356.139404 314.835480,347.245331 
	C336.714478,331.923950 354.196838,312.522644 367.241974,289.114777 
	C369.127472,285.731476 368.875549,283.270966 366.753357,280.516174 
	C354.356689,264.424072 342.264679,248.084915 329.476013,232.310638 
	C316.324738,216.089142 292.821808,213.417877 275.145630,220.430222 
	C263.939423,224.875854 255.658188,232.702515 248.864456,242.666061 
	C240.569733,254.830917 231.642944,266.579956 222.657990,278.253662 
	C216.744263,285.937134 208.609909,291.250366 199.278046,293.063843 
	C186.870041,295.475159 175.872528,291.564758 166.709778,282.396362 
	C161.534317,277.217682 157.940765,270.691528 152.384628,265.974152 
	C147.435577,261.772156 141.627579,257.652802 134.926575,259.839905 
	C128.060669,262.080780 122.223549,266.561615 117.650948,272.552643 
	C110.666016,281.704315 103.337929,290.594086 95.689262,300.018494 
M220.042755,259.585938 
	C224.822739,253.075302 229.417908,246.418060 234.433701,240.094452 
	C239.648041,233.520477 239.860931,230.766281 234.558212,224.118118 
	C233.422943,222.694809 232.180740,221.350571 231.120636,219.874496 
	C221.601578,206.620193 212.125656,193.334900 202.609985,180.078156 
	C194.628220,168.958389 186.708588,157.791809 178.564301,146.791916 
	C174.835892,141.756210 171.548019,136.352356 166.792557,132.103836 
	C161.116425,127.032814 155.133423,126.050018 148.156143,129.125931 
	C141.854965,131.903809 137.619110,137.226578 133.770218,142.334839 
	C124.300148,154.903610 115.743835,168.158157 106.670891,181.031799 
	C105.324455,182.942245 104.592972,184.855804 106.194351,186.345581 
	C108.743416,188.717056 111.339546,191.297470 115.646362,188.830368 
	C119.174217,186.809509 122.009537,184.160156 124.948181,181.496521 
	C133.409195,173.827347 143.837418,172.813309 150.775650,179.170593 
	C155.629349,183.617889 160.108063,188.472168 164.816803,193.080765 
	C167.825409,196.025375 168.795120,199.755325 166.116379,202.758163 
	C162.912262,206.349976 159.249252,204.390579 156.255478,201.512970 
	C153.028473,198.411209 149.933990,195.160980 146.579041,192.205582 
	C142.117569,188.275467 138.403839,188.167175 133.686584,191.584534 
	C131.150543,193.421753 128.790070,195.504318 126.229156,197.303650 
	C119.722832,201.875046 113.115677,205.694794 104.813332,201.274445 
	C101.767197,199.652618 99.652588,196.591660 95.944725,195.748535 
	C89.884888,201.443008 86.323784,208.988174 81.469955,215.558624 
	C72.612320,227.548904 64.333153,239.965714 55.523300,251.992599 
	C52.936230,255.524368 52.505703,259.265656 53.694557,262.819427 
	C57.854649,275.254913 63.295471,287.135101 70.621170,298.094177 
	C72.089180,300.290253 73.424454,302.498993 76.178925,304.084351 
	C83.751328,294.197876 91.077248,284.234741 98.838470,274.623077 
	C105.352043,266.556519 111.055305,257.735748 120.296585,252.121307 
	C133.450775,244.129578 147.107132,244.414734 158.440750,254.887268 
	C165.695984,261.591278 172.224152,269.081146 179.465668,275.801270 
	C186.404404,282.240356 196.760071,282.701660 204.374557,276.493561 
	C210.220856,271.727081 214.775620,265.814056 220.042755,259.585938 
M248.495224,190.640686 
	C251.046341,193.977997 253.115738,192.529480 254.556473,189.749832 
	C259.655426,179.912323 273.852600,180.491486 278.932861,187.621017 
	C282.626434,192.804489 286.827057,193.359726 292.142151,192.865479 
	C294.124725,192.681122 296.139679,192.715576 298.132904,192.805206 
	C301.132996,192.940094 303.190033,192.199173 305.166962,189.386581 
	C311.999725,179.665558 325.745087,179.874512 331.264709,190.477921 
	C332.301880,192.470306 333.121765,194.699738 335.844757,193.915680 
	C338.576996,193.128967 341.087036,191.982666 340.718201,188.146439 
	C340.385040,184.681366 340.528870,181.154205 340.678253,177.663666 
	C340.818542,174.386063 339.349945,173.197571 336.197845,173.295242 
	C332.038879,173.424149 327.861969,173.122482 323.711426,173.348419 
	C305.351501,174.347839 303.945496,169.134644 304.655731,153.578598 
	C304.903687,148.148376 308.301086,144.818848 313.863647,144.678421 
	C316.455078,144.612991 319.049561,144.667252 321.933929,144.667252 
	C321.108978,142.434418 319.837799,141.917816 318.438141,141.302917 
	C310.987823,138.029694 302.868866,138.791092 295.107727,137.594727 
	C282.405304,135.636642 269.676300,138.753326 256.946869,139.486420 
	C253.517426,139.683929 250.942383,141.914978 249.356705,145.128433 
	C247.703506,148.478729 247.143326,151.958420 247.310699,155.684311 
	C247.824615,167.126144 246.489426,178.607727 248.495224,190.640686 
M334.707123,164.127457 
	C334.178986,154.495407 329.259033,150.889160 317.580536,151.327499 
	C313.467865,151.481842 311.457092,153.480484 311.384766,157.455200 
	C311.304932,161.844086 313.696014,164.614380 317.629700,164.641830 
	C323.119293,164.680161 328.610016,164.557022 334.707123,164.127457 
M311.619476,199.793427 
	C313.871307,203.030029 316.810699,204.071686 320.610901,202.786285 
	C322.823761,202.037811 324.472961,200.837540 324.589600,198.368698 
	C324.764893,194.657578 323.519012,191.842728 319.348145,191.382431 
	C314.614624,190.860046 311.932007,193.512436 311.619476,199.793427 
M262.049225,195.444916 
	C261.374573,199.281113 263.673157,203.842682 266.986816,204.233047 
	C270.505371,204.647522 273.045074,202.169250 274.254242,199.325516 
	C275.814178,195.656815 272.734161,193.238831 270.083893,191.896545 
	C267.074341,190.372314 263.876831,190.945724 262.049225,195.444916 
M293.435974,201.323990 
	C289.526886,201.959549 285.124237,199.946808 281.709869,203.374664 
	C288.461548,201.563980 295.458618,203.347717 302.221863,201.324982 
	C299.606934,201.324982 296.992035,201.324982 293.435974,201.323990 
z"/>
<path fill="#000000" opacity="1.000000" stroke="none" 
	d="
M287.789185,173.322815 
	C280.488861,173.323822 273.663239,173.324738 266.837585,173.324753 
	C256.254272,173.324799 249.628815,163.700089 253.276077,153.624725 
	C255.980698,146.153381 258.079102,144.672501 266.023529,144.667267 
	C274.181000,144.661896 282.338989,144.615814 290.495758,144.691971 
	C295.675018,144.740326 299.135010,148.159424 299.319550,153.312454 
	C299.426727,156.305496 299.363464,159.305038 299.358215,162.301620 
	C299.344269,170.241211 296.481659,173.080292 287.789185,173.322815 
M270.580383,164.665909 
	C275.567413,164.667755 280.555786,164.600632 285.541077,164.694504 
	C289.163971,164.762711 292.247131,164.334442 292.641907,159.771988 
	C293.047943,155.079483 290.541016,153.350967 286.271301,152.687286 
	C279.763885,151.675766 273.364929,153.777405 266.903778,153.019165 
	C262.000031,152.443695 261.313385,155.077271 261.206757,159.286102 
	C261.088684,163.946182 263.007843,165.200317 267.120789,164.676514 
	C267.938507,164.572388 268.781158,164.664322 270.580383,164.665909 
z"/>
</svg>