<?xml version="1.0" encoding="UTF-8"?>
<svg version="1.1" xmlns="http://www.w3.org/2000/svg" width="416" height="414">
<path d="M0 0 C137.28 0 274.56 0 416 0 C416 136.62 416 273.24 416 414 C278.72 414 141.44 414 0 414 C0 277.38 0 140.76 0 0 Z " fill="#FEFDFD" transform="translate(0,0)"/>
<path d="M0 0 C2.88192986 2.51936353 4.34148933 5.29103405 6.05619812 8.69107056 C6.49494136 9.55518698 6.49494136 9.55518698 6.9425481 10.43676031 C7.92015003 12.36597017 8.88914409 14.29937229 9.8581543 16.23291016 C10.55763394 17.61798008 11.25758678 19.00281111 11.95797729 20.38742065 C13.85849616 24.14912477 15.75101516 27.91479677 17.64114738 31.68172884 C18.82286935 34.03637375 20.00599453 36.39030834 21.18955421 38.74403 C24.89417792 46.11226126 28.59398863 53.48287905 32.28684872 60.85701334 C36.54617207 69.36222276 40.82105515 77.85936288 45.10974377 86.34980166 C48.4261353 92.91767755 51.72861421 99.49242843 55.02067119 106.07253492 C56.98608277 110.00021781 58.95718519 113.92478312 60.94278526 117.84230423 C62.81124553 121.52968441 64.66222797 125.22532772 66.50037766 128.92790604 C67.17619144 130.28183959 67.8581202 131.63274158 68.5467205 132.98021698 C72.17931865 140.09770734 74.90982984 145.84514234 74 154 C75.13501953 154.07347656 75.13501953 154.07347656 76.29296875 154.1484375 C79 155 79 155 80.80078125 157.4765625 C81.29964844 158.51554688 81.79851562 159.55453125 82.3125 160.625 C82.82425781 161.64851562 83.33601562 162.67203125 83.86328125 163.7265625 C85.170334 167.4905151 85.37686376 170.03353575 85 174 C83.18334961 176.59545898 83.18334961 176.59545898 80.65234375 178.99609375 C79.73646484 179.88490234 78.82058594 180.77371094 77.87695312 181.68945312 C76.89783858 182.60622032 75.91801641 183.52223232 74.9375 184.4375 C73.04856401 186.24638539 71.16180445 188.05754656 69.27734375 189.87109375 C68.36710449 190.74233887 67.45686523 191.61358398 66.51904297 192.51123047 C63.72352691 195.27315048 61.15657148 198.16192061 58.61157227 201.15258789 C55.90027807 204.26065685 52.94569071 207.11628091 50 210 C44.61357955 215.31105805 44.61357955 215.31105805 39.5625 220.9375 C36.10961385 225.02621173 32.29922582 228.73734476 28.5 232.5 C22.82499967 238.08544607 22.82499967 238.08544607 17.5 244 C13.4619844 248.79514352 8.91874941 253.1045078 4.46875 257.51171875 C1.36994552 260.59207796 -1.68329772 263.65516604 -4.5 267 C-8.53403537 271.79041701 -13.07231149 276.09580714 -17.51806641 280.49853516 C-21.3006952 284.25853042 -24.93045793 288.06998147 -28.37109375 292.1484375 C-31.71680555 295.95147681 -35.38316877 299.45698165 -39 303 C-42.0526987 299.36662171 -43.85177331 295.33699244 -45.79296875 291.05078125 C-46.31930656 289.8927021 -46.31930656 289.8927021 -46.85627747 288.71122742 C-47.59451519 287.0793882 -48.32977876 285.44620065 -49.06225586 283.81176758 C-50.17902184 281.33133075 -51.31862882 278.86223991 -52.45898438 276.39257812 C-53.17592291 274.80012837 -53.89146321 273.20704823 -54.60546875 271.61328125 C-54.94603806 270.88482498 -55.28660736 270.15636871 -55.63749695 269.40583801 C-57.99021471 264.05014735 -58.31288115 259.84248836 -58 254 C-58.76078857 253.95520508 -59.52157715 253.91041016 -60.30541992 253.86425781 C-63 253 -63 253 -64.66918945 250.48730469 C-65.14573975 249.39321289 -65.62229004 248.29912109 -66.11328125 247.171875 C-66.63857422 245.97949219 -67.16386719 244.78710938 -67.70507812 243.55859375 C-67.96877197 242.9332373 -68.23246582 242.30788086 -68.50415039 241.66357422 C-69.30754882 239.76172074 -70.14013881 237.87493703 -70.97851562 235.98828125 C-75.35568666 225.88544425 -75.35568666 225.88544425 -75 221 C-75.99 220.67 -76.98 220.34 -78 220 C-79.29589844 217.74804688 -79.29589844 217.74804688 -80.609375 214.71875 C-81.10977295 213.58171631 -81.6101709 212.44468262 -82.12573242 211.27319336 C-82.6671685 210.01546807 -83.20859065 208.75773679 -83.75 207.5 C-84.31424517 206.211115 -84.87977928 204.92279358 -85.4465332 203.63500977 C-86.34508136 201.5932975 -87.24293401 199.55131476 -88.13716125 197.50770569 C-91.41672809 190.0179312 -94.79674933 182.57451292 -98.18688965 175.13427734 C-99.17604118 172.96265712 -100.16296375 170.79003587 -101.14941406 168.6171875 C-101.75967895 167.27470018 -102.37002637 165.93225037 -102.98046875 164.58984375 C-103.51567139 163.41284912 -104.05087402 162.23585449 -104.60229492 161.02319336 C-105.42665532 159.24012702 -106.27510913 157.46730788 -107.17651367 155.72192383 C-108.66937413 152.60032738 -108.11337407 149.40122196 -108 146 C-108.61061279 145.92434814 -109.22122559 145.84869629 -109.8503418 145.77075195 C-112 145 -112 145 -113.29614258 143.11401367 C-113.65861084 142.30681885 -114.0210791 141.49962402 -114.39453125 140.66796875 C-114.79220703 139.78689453 -115.18988281 138.90582031 -115.59960938 137.99804688 C-115.99986328 137.07056641 -116.40011719 136.14308594 -116.8125 135.1875 C-117.23208984 134.27162109 -117.65167969 133.35574219 -118.08398438 132.41210938 C-121.38963109 124.93492166 -121.38963109 124.93492166 -120 121 C-118.67163086 119.31759644 -118.67163086 119.31759644 -116.96484375 117.64013672 C-116.32748291 117.00623016 -115.69012207 116.37232361 -115.03344727 115.71920776 C-114.34178467 115.04616608 -113.65012207 114.37312439 -112.9375 113.6796875 C-112.23101318 112.9798172 -111.52452637 112.2799469 -110.79663086 111.55886841 C-108.53806246 109.32371504 -106.2695844 107.0989622 -104 104.875 C-101.73217078 102.64220072 -99.46647735 100.40729245 -97.20336914 98.16970825 C-95.79423534 96.77758803 -94.38203744 95.38856141 -92.96655273 94.00289917 C-92.32919189 93.37529694 -91.69183105 92.7476947 -91.03515625 92.10107422 C-90.4719165 91.5491037 -89.90867676 90.99713318 -89.32836914 90.42843628 C-87.89160151 89.01787535 -87.89160151 89.01787535 -87 87 C-86.34 87 -85.68 87 -85 87 C-84.73487106 86.40922668 -84.46974213 85.81845337 -84.19657898 85.20977783 C-82.96231302 82.9304017 -81.69377154 81.45812977 -79.85473633 79.64355469 C-79.21679642 79.00899353 -78.57885651 78.37443237 -77.92158508 77.72064209 C-77.23203232 77.04454895 -76.54247955 76.36845581 -75.83203125 75.671875 C-74.76247444 74.61012054 -74.76247444 74.61012054 -73.67131042 73.5269165 C-71.38973806 71.26314228 -69.10161658 69.00614329 -66.8125 66.75 C-64.54206125 64.50733494 -62.27315071 62.26317841 -60.00724792 60.01593018 C-58.59870969 58.61947599 -57.18750874 57.22570033 -55.77314758 55.83514404 C-51.9173237 52.01784246 -48.29112458 48.08215496 -44.74815369 43.97424316 C-41.80504548 40.65050149 -38.6504026 37.5474674 -35.4921875 34.4296875 C-34.80367706 33.74496368 -34.11516663 33.06023987 -33.40579224 32.35476685 C-31.23130446 30.19236761 -29.05358333 28.03327245 -26.875 25.875 C-23.99445094 23.02117572 -21.11732205 20.16396552 -18.2421875 17.3046875 C-17.26389481 16.33884232 -17.26389481 16.33884232 -16.26583862 15.35348511 C-13.42427188 12.52711416 -10.72988648 9.72171022 -8.25439453 6.56689453 C-6 4 -6 4 -2.6875 3.625 C-1.800625 3.74875 -0.91375 3.8725 0 4 C0 2.68 0 1.36 0 0 Z " fill="#0C214E" transform="translate(322,58)"/>
<path d="M0 0 C53.46 0 106.92 0 162 0 C176.81773793 31.91512784 176.81773793 31.91512784 181.4753418 42.21191406 C183.01845143 45.62304589 184.56617739 49.03208462 186.11328125 52.44140625 C186.43168976 53.14331085 186.75009827 53.84521545 187.07815552 54.56838989 C190.70193829 62.55328862 194.35108652 70.52656298 198 78.5 C203.18247949 89.82618618 208.35004036 101.15899062 213.5 112.5 C218.39450602 123.27771779 223.30090852 134.0499086 228.22265625 144.81521606 C229.23732529 147.03477445 230.25149297 149.25456144 231.265625 151.47436523 C234.31454515 158.14549832 237.37176148 164.81253486 240.453125 171.46875 C240.97229492 172.59273193 241.49146484 173.71671387 242.02636719 174.87475586 C242.98209806 176.94218097 243.94089808 179.0081911 244.90332031 181.07250977 C245.31678711 181.96768311 245.73025391 182.86285645 246.15625 183.78515625 C246.51525391 184.55738525 246.87425781 185.32961426 247.24414062 186.12524414 C248 188 248 188 248 190 C194.87 190 141.74 190 87 190 C80.73 176.47 74.46 162.94 68 149 C62.63512391 137.49696798 62.63512391 137.49696798 57.265625 125.99609375 C49.82260644 110.05851905 42.42525434 94.09979791 35.0625 78.125 C30.17644819 67.52494385 25.24931331 56.94441488 20.30786133 46.37011719 C17.29508079 39.92222964 14.28763784 33.47194765 11.29296875 27.015625 C10.84323448 26.0460939 10.84323448 26.0460939 10.38441467 25.05697632 C8.95072987 21.96566455 7.5179823 18.87392347 6.08618164 15.78173828 C5.57821045 14.68587402 5.07023926 13.59000977 4.546875 12.4609375 C4.10182617 11.49978027 3.65677734 10.53862305 3.19824219 9.54833984 C2.45217538 7.96165579 1.6717628 6.39012034 0.84082031 4.84619141 C0 3 0 3 0 0 Z " fill="#AC4351" transform="translate(13,188)"/>
<path d="M0 0 C1.50899018 0.00310933 3.01799696 0.0013484 4.52697754 -0.00486755 C8.59173466 -0.00800228 12.65286393 0.05629584 16.71678329 0.13344598 C20.97532971 0.20258295 25.23397516 0.20870078 29.49299622 0.22172546 C37.54347478 0.25580773 45.59229462 0.34592339 53.64204532 0.45656985 C62.81238639 0.57986139 71.98281002 0.64008621 81.15377462 0.69521964 C100.00555367 0.80995398 118.85579253 1.00321982 137.70629883 1.2487793 C135.93602717 5.0484633 133.7311756 7.43975773 130.72583008 10.3894043 C130.23475266 10.87528015 129.74367523 11.36115601 129.23771667 11.86175537 C127.66944235 13.41228233 126.094664 14.95597085 124.51879883 16.4987793 C122.96160012 18.02808861 121.40599053 19.55892877 119.85343933 21.09295654 C118.4324838 22.49626467 117.00666971 23.89464819 115.58056641 25.29272461 C113.386631 27.49667186 111.33746903 29.79504845 109.3046875 32.14819336 C105.8632702 36.12009006 102.22728842 39.84034405 98.48754883 43.5300293 C97.82597778 44.18781372 97.16440674 44.84559814 96.48278809 45.52331543 C93.69051739 48.29944488 90.89224466 51.06949467 88.09448242 53.84008789 C86.03588985 55.8804501 83.9804198 57.92392261 81.92504883 59.9675293 C80.99505066 60.88507996 80.99505066 60.88507996 80.04626465 61.82116699 C76.98350657 64.86699349 74.04366866 67.96545829 71.2199707 71.23510742 C67.74318264 75.25903508 64.05212204 79.01436813 60.26879883 82.7487793 C59.58503174 83.42875977 58.90126465 84.10874023 58.19677734 84.80932617 C55.30892109 87.68103073 52.41506807 90.54666367 49.52172852 93.4128418 C47.39364158 95.52270717 45.26866966 97.63567575 43.14379883 99.7487793 C42.50192627 100.38235352 41.86005371 101.01592773 41.19873047 101.66870117 C38.13255692 104.71847379 35.18289086 107.80983976 32.36645508 111.0925293 C31.81643011 111.71149393 31.26640514 112.33045856 30.69971275 112.9681797 C29.32218968 114.54415874 27.98826108 116.15893175 26.69181252 117.80225182 C22.13066846 123.09456459 18.82668058 125.87323815 11.73324585 126.45132446 C9.0150221 126.48023025 6.33198138 126.45623091 3.61791992 126.3840332 C2.11892894 126.38120729 0.61992415 126.38280591 -0.87905884 126.38845825 C-4.92089465 126.39131076 -8.9597221 126.33280788 -13.0008626 126.26271868 C-17.23409009 126.19991612 -21.4673978 126.19430896 -25.70101929 126.1824646 C-33.70535532 126.15146678 -41.70831448 126.06952295 -49.71204603 125.9689697 C-58.82920062 125.85693136 -67.94642336 125.80214763 -77.06409574 125.75201535 C-95.8080762 125.64767948 -114.55077773 125.47195451 -133.29370117 125.2487793 C-132.3468516 124.14123398 -131.3995858 123.03404449 -130.45214844 121.92700195 C-129.92468521 121.31039703 -129.39722198 120.69379211 -128.85377502 120.0585022 C-122.22609304 112.37023293 -115.23307164 105.05460477 -107.97314453 97.96508789 C-105.15411149 95.19301637 -102.48413571 92.35428796 -99.90307617 89.3581543 C-95.60975454 84.3922991 -90.93813887 79.84255727 -86.25463867 75.2487793 C-82.99740139 72.02927063 -79.84199311 68.78553029 -76.85620117 65.3112793 C-72.19283372 59.89712026 -67.05743543 54.96614218 -61.96557617 49.9597168 C-57.79686023 45.83353878 -53.82704459 41.63010343 -50.00463867 37.18237305 C-47.08719474 33.88526176 -43.93584269 30.8297834 -40.79370117 27.7487793 C-34.99963259 22.03347992 -34.99963259 22.03347992 -29.54370117 15.9987793 C-29.07217023 15.45769689 -28.60063929 14.91661448 -28.11481953 14.35913563 C-26.74662525 12.77363876 -25.41712425 11.15462045 -24.10773754 9.52022076 C-16.77404549 1.1372493 -11.25673266 -0.32804577 0 0 Z " fill="#AC4452" transform="translate(160.293701171875,36.751220703125)"/>
<path d="M0 0 C53.46 0 106.92 0 162 0 C165 6 165 6 165 8 C84.81 8.495 84.81 8.495 3 9 C0 3 0 3 0 0 Z " fill="#B1646E" transform="translate(13,188)"/>
<path d="M0 0 C1.56073255 2.34109882 2.86373867 4.56333403 4.125 7.0625 C4.65480469 8.10083984 4.65480469 8.10083984 5.1953125 9.16015625 C6 11 6 11 6 13 C-47.13 13 -100.26 13 -155 13 C-155.99 10.36 -156.98 7.72 -158 5 C-105.86 5 -53.72 5 0 5 C0 3.35 0 1.7 0 0 Z " fill="#B87E87" transform="translate(255,365)"/>
<path d="M0 0 C4.25039614 0.08821469 8.50096638 0.09579558 12.75213671 0.11235571 C20.78176724 0.15567082 28.80869219 0.27027003 36.83713734 0.41124856 C45.98563398 0.5683674 55.13426789 0.64486401 64.28378034 0.71498466 C83.08582552 0.86086709 101.88536126 1.1067114 120.68533373 1.41951513 C119.07998086 4.83010916 117.28014472 7.03743998 114.56033373 9.66951513 C113.8358806 10.37592138 113.11142748 11.08232763 112.36502123 11.81014013 C111.53357592 12.60678076 111.53357592 12.60678076 110.68533373 13.41951513 C110.35533373 12.09951513 110.02533373 10.77951513 109.68533373 9.41951513 C90.49200819 9.40995865 71.29901603 9.4345643 52.10579538 9.49979353 C43.19393211 9.52928527 34.28230732 9.54761511 25.37039232 9.53963232 C17.60235562 9.53270251 9.83468801 9.54675214 2.06674206 9.58595121 C-2.04611758 9.60597425 -6.15839767 9.61552031 -10.27128935 9.59993887 C-14.14414482 9.58559838 -18.01589351 9.59934977 -21.88860655 9.6344676 C-23.30834179 9.64242343 -24.7281771 9.6401954 -26.14787245 9.62690687 C-33.65981171 9.33469519 -33.65981171 9.33469519 -40.52500486 11.80665731 C-42.40745452 13.57216448 -42.40745452 13.57216448 -44.31466627 16.41951513 C-44.97466627 16.08951513 -45.63466627 15.75951513 -46.31466627 15.41951513 C-35.42086875 -2.44894666 -18.62831496 -0.45243372 0 0 Z " fill="#A85B68" transform="translate(177.31466627120972,36.58048486709595)"/>
<path d="M0 0 C1.28445007 -0.00549866 2.56890015 -0.01099731 3.89227295 -0.0166626 C5.31341927 -0.00250685 6.73456181 0.01203238 8.15570068 0.0269165 C9.65380828 0.02804493 11.1519181 0.02741122 12.65002441 0.02514648 C16.71596726 0.02399819 20.78143869 0.04752584 24.84727192 0.07544231 C29.09668403 0.1004369 33.34610678 0.10279643 37.59558105 0.10754395 C45.64205992 0.11997946 53.68832155 0.15280879 61.73470473 0.1929419 C70.89541476 0.23764175 80.05613513 0.25964215 89.21692705 0.27972364 C108.06089926 0.32154097 126.90466923 0.39190415 145.74847412 0.48101807 C147.20910263 3.12840723 147.74847412 4.37550141 147.74847412 7.48101807 C127.37575873 8.2334325 107.04563247 8.6265477 86.65694427 8.582412 C83.15506717 8.57597526 79.65318826 8.5755592 76.15130615 8.5743866 C69.57915997 8.5713311 63.00703128 8.56319951 56.43489265 8.55303711 C48.92764533 8.54169149 41.42039698 8.53632003 33.91314316 8.53134167 C18.52491016 8.52100891 3.13669443 8.5035271 -12.25152588 8.48101807 C-9.60368981 2.3027339 -6.77214041 -0.0223503 0 0 Z " fill="#F4CFD7" transform="translate(32.25152587890625,161.51898193359375)"/>
<path d="M0 0 C1.43928908 0.0022583 2.87858736 0.00098658 4.31787109 -0.00354004 C8.21489815 -0.00583132 12.10994698 0.04112841 16.00651503 0.09705162 C20.08233519 0.14713456 24.15820305 0.15176704 28.23428345 0.16125488 C35.94811777 0.18609914 43.66104276 0.25171873 51.37447703 0.3320508 C60.15787531 0.42153618 68.94131752 0.46547234 77.72505832 0.50561428 C95.78938866 0.58918766 113.85287312 0.72985944 131.91650391 0.90820312 C132.90650391 4.37320313 132.90650391 4.37320313 133.91650391 7.90820312 C131.91650391 9.90820312 131.91650391 9.90820312 129.29656792 10.13868141 C127.61798289 10.12485452 127.61798289 10.12485452 125.90548706 10.11074829 C124.62378632 10.10508347 123.34208557 10.09941864 122.02154541 10.09358215 C120.59313749 10.07705938 119.16473178 10.06034452 117.73632812 10.04345703 C116.23852098 10.03303544 114.74070746 10.02349937 113.2428894 10.01478577 C109.16864955 9.98856074 105.0946101 9.94989583 101.02049398 9.90906191 C96.76576058 9.86851191 92.51094999 9.8393127 88.25613403 9.80892944 C80.19544714 9.74963374 72.13488255 9.68007254 64.07431138 9.60685861 C54.89916682 9.52401825 45.72394476 9.45256785 36.54869819 9.38209271 C17.6711854 9.23683824 -1.20618186 9.07721984 -20.08349609 8.90820312 C-15.63785701 -0.43622749 -9.50309604 -0.20846578 0 0 Z " fill="#F5D3D8" transform="translate(166.08349609375,29.091796875)"/>
<path d="M0 0 C2 3 2 3 2 12 C-12.19 12 -26.38 12 -41 12 C-41 10.02 -41 8.04 -41 6 C-78.95 6 -116.9 6 -156 6 C-156 5.67 -156 5.34 -156 5 C-104.52 5 -53.04 5 0 5 C0 3.35 0 1.7 0 0 Z " fill="#B37882" transform="translate(255,365)"/>
<path d="M0 0 C-0.95729916 1.12588014 -1.91587895 2.2506715 -2.875 3.375 C-3.40867188 4.00148437 -3.94234375 4.62796875 -4.4921875 5.2734375 C-7.7239627 8.97407128 -7.7239627 8.97407128 -10.61993599 9.24609566 C-11.73899267 9.24425207 -12.85804935 9.24240849 -14.01101685 9.24050903 C-15.29271759 9.24325836 -16.57441833 9.24600769 -17.8949585 9.24884033 C-19.32336518 9.24176155 -20.75177094 9.23449193 -22.18017578 9.22705078 C-23.67798861 9.22648689 -25.17580199 9.22680279 -26.6736145 9.22793579 C-30.74779441 9.22851118 -34.82185729 9.21672682 -38.89600992 9.20278788 C-43.15079059 9.19031149 -47.40557374 9.18911246 -51.66036987 9.18673706 C-59.72100339 9.18051318 -67.78158285 9.16409011 -75.84219253 9.14403808 C-85.01738928 9.12170729 -94.19258857 9.11069276 -103.36780572 9.10064721 C-122.24523449 9.07972464 -141.12261291 9.04453107 -160 9 C-158.35830472 6.97945196 -156.69088222 4.97956942 -155 3 C-154.67 3 -154.34 3 -154 3 C-154 4.65 -154 6.3 -154 8 C-113.41 8 -72.82 8 -31 8 C-31 5.69 -31 3.38 -31 1 C-20.64305688 0.23785964 -10.3864793 -0.13430792 0 0 Z " fill="#9D555F" transform="translate(187,153)"/>
<path d="M0 0 C2.31 0 4.62 0 7 0 C7.33 5.28 7.66 10.56 8 16 C10.97 16 13.94 16 17 16 C17 21.28 17 26.56 17 32 C19.64 32 22.28 32 25 32 C25 39.92 25 47.84 25 56 C22.19060369 53.19060369 20.94690339 49.77540144 19.375 46.1875 C19.05015625 45.47529297 18.7253125 44.76308594 18.390625 44.02929688 C16.71362536 40.2208166 15.54890058 37.25202976 16 33 C15.01 32.67 14.02 32.34 13 32 C11.46606445 29.27197266 11.46606445 29.27197266 9.86328125 25.6640625 C9.57897751 25.02890717 9.29467377 24.39375183 9.00175476 23.73934937 C8.40261368 22.39487839 7.80865012 21.04809 7.21948242 19.69921875 C6.31683895 17.63492295 5.3971971 15.57888514 4.47460938 13.5234375 C0 3.43788853 0 3.43788853 0 0 Z " fill="#2A3B56" transform="translate(231,246)"/>
<path d="M0 0 C2.35365901 2.94725043 4.08098603 5.90167303 5.6875 9.3125 C6.12449219 10.21613281 6.56148437 11.11976563 7.01171875 12.05078125 C8 15 8 15 8 22 C-44.14 22 -96.28 22 -150 22 C-151.32 19.36 -152.64 16.72 -154 14 C-152.35 14 -150.7 14 -149 14 C-149 16.31 -149 18.62 -149 21 C-99.5 21 -50 21 1 21 C0.67 18.69 0.34 16.38 0 14 C-0.06460929 11.5215878 -0.08611087 9.04164177 -0.0625 6.5625 C-0.05347656 5.32628906 -0.04445312 4.09007812 -0.03515625 2.81640625 C-0.01775391 1.42228516 -0.01775391 1.42228516 0 0 Z " fill="#A2515F" transform="translate(247,348)"/>
<path d="M0 0 C0.66 0 1.32 0 2 0 C3.83654369 3.64422487 5.66869572 7.29063976 7.5 10.9375 C8.02464844 11.97841797 8.54929687 13.01933594 9.08984375 14.09179688 C9.58613281 15.08115234 10.08242188 16.07050781 10.59375 17.08984375 C11.05458984 18.00628662 11.51542969 18.92272949 11.99023438 19.86694336 C13 22 13 22 13 23 C11.35 23 9.7 23 8 23 C8 20.36 8 17.72 8 15 C5.69 15 3.38 15 1 15 C1 16.98 1 18.96 1 21 C0.67 21 0.34 21 0 21 C0 19.02 0 17.04 0 15 C-4.95 15 -9.9 15 -15 15 C-15 12.36 -15 9.72 -15 7 C-10.05 7 -5.1 7 0 7 C0 4.69 0 2.38 0 0 Z " fill="#1F3153" transform="translate(329,73)"/>
<path d="M0 0 C3.3 0 6.6 0 10 0 C10.06058594 1.30195313 10.12117188 2.60390625 10.18359375 3.9453125 C10.26804562 5.67188399 10.35269126 7.398446 10.4375 9.125 C10.47681641 9.9809375 10.51613281 10.836875 10.55664062 11.71875 C10.78156402 16.21721792 11.13540883 20.56806207 12 25 C13.98 25.33 15.96 25.66 18 26 C18.33 29.3 18.66 32.6 19 36 C18.67 35.34 18.34 34.68 18 34 C16.35 34 14.7 34 13 34 C10.95402868 29.9611229 8.92555492 25.91429474 6.91943359 21.85546875 C6.10542858 20.21276081 5.28192891 18.57476522 4.45703125 16.9375 C1.65908483 11.16109449 0.31590061 6.42331248 0 0 Z " fill="#973B48" transform="translate(80,328)"/>
<path d="M0 0 C2.97 0 5.94 0 9 0 C9.33 2.31 9.66 4.62 10 7 C-40.16 7 -90.32 7 -142 7 C-142 6.67 -142 6.34 -142 6 C-95.14 6 -48.28 6 0 6 C0 4.02 0 2.04 0 0 Z " fill="#DFB2BA" transform="translate(288,31)"/>
<path d="M0 0 C0.33 0.99 0.66 1.98 1 3 C0.113125 3.721875 -0.77375 4.44375 -1.6875 5.1875 C-4.62911087 7.6365298 -7.32856849 10.25636764 -10 13 C-10.52851563 13.41636719 -11.05703125 13.83273438 -11.6015625 14.26171875 C-13.64072563 16.7964327 -13.51511088 18.98106235 -13.6875 22.1875 C-13.75324219 23.27417969 -13.81898438 24.36085937 -13.88671875 25.48046875 C-13.92410156 26.31191406 -13.96148437 27.14335937 -14 28 C-11.69 28 -9.38 28 -7 28 C-7 33.28 -7 38.56 -7 44 C-11 43 -11 43 -12.29614258 41.11401367 C-12.65861084 40.30681885 -13.0210791 39.49962402 -13.39453125 38.66796875 C-13.79220703 37.78689453 -14.18988281 36.90582031 -14.59960938 35.99804688 C-14.99986328 35.07056641 -15.40011719 34.14308594 -15.8125 33.1875 C-16.23208984 32.27162109 -16.65167969 31.35574219 -17.08398438 30.41210938 C-20.0447773 23.71496162 -20.0447773 23.71496162 -19.87402344 20.98852539 C-18.65755371 18.22088685 -16.90220926 16.56640378 -14.74609375 14.453125 C-13.89208984 13.60878906 -13.03808594 12.76445312 -12.15820312 11.89453125 C-11.26037109 11.02183594 -10.36253906 10.14914063 -9.4375 9.25 C-8.53580078 8.36183594 -7.63410156 7.47367188 -6.70507812 6.55859375 C-4.47662902 4.36551685 -2.24148407 2.17973956 0 0 Z " fill="#434E68" transform="translate(221,160)"/>
<path d="M0 0 C2.32789515 2.83395931 3.07377893 4.29511572 4 8 C-49.13 8 -102.26 8 -157 8 C-157 7.67 -157 7.34 -157 7 C-105.19 7 -53.38 7 0 7 C0 4.69 0 2.38 0 0 Z " fill="#C89AA2" transform="translate(257,370)"/>
<path d="M0 0 C1.98 0 3.96 0 6 0 C7.77410051 5.31531689 8.2577668 9.85618805 8.125 15.4375 C8.11597656 16.16904297 8.10695312 16.90058594 8.09765625 17.65429688 C8.07436153 19.43634298 8.0385019 21.21821759 8 23 C5.36 23 2.72 23 0 23 C0 15.41 0 7.82 0 0 Z " fill="#973F4F" transform="translate(222,305)"/>
<path d="M0 0 C0.33 0 0.66 0 1 0 C1 2.31 1 4.62 1 7 C3.31 7 5.62 7 8 7 C8.33 4.69 8.66 2.38 9 0 C10.98 0 12.96 0 15 0 C11.56613324 5.76300426 7.07521193 10.18776057 2.3125 14.875 C1.52810547 15.65875 0.74371094 16.4425 -0.06445312 17.25 C-5.85953152 23 -5.85953152 23 -7 23 C-7.02685095 20.52076199 -7.04676547 18.0418116 -7.0625 15.5625 C-7.07506836 14.50192383 -7.07506836 14.50192383 -7.08789062 13.41992188 C-7.09653588 11.61306441 -7.05220011 9.80612397 -7 8 C-6 7 -6 7 -2.9375 6.9375 C-1.4834375 6.9684375 -1.4834375 6.9684375 0 7 C0 4.69 0 2.38 0 0 Z " fill="#0C1B42" transform="translate(329,296)"/>
<path d="M0 0 C4.95 0 9.9 0 15 0 C15 5 15 5 12.98828125 7.67578125 C11.66376953 8.98095703 11.66376953 8.98095703 10.3125 10.3125 C9.44238281 11.19550781 8.57226562 12.07851563 7.67578125 12.98828125 C5 15 5 15 0 15 C0 10.05 0 5.1 0 0 Z " fill="#8F4E5A" transform="translate(272,46)"/>
<path d="M0 0 C0.33 0 0.66 0 1 0 C1 1.65 1 3.3 1 5 C49.18 5 97.36 5 147 5 C147 5.33 147 5.66 147 6 C96.84 6 46.68 6 -5 6 C-3.35 4.02 -1.7 2.04 0 0 Z " fill="#AE727E" transform="translate(32,156)"/>
<path d="M0 0 C2.97 0 5.94 0 9 0 C9.73377577 4.48418524 9.87812555 6.73354781 7.2421875 10.53515625 C1.58725577 16.58305781 1.58725577 16.58305781 -2.15625 17.56640625 C-4.0625 17.5625 -4.0625 17.5625 -7 17 C-7 15.02 -7 13.04 -7 11 C-5.02 10.67 -3.04 10.34 -1 10 C-0.67 6.7 -0.34 3.4 0 0 Z " fill="#08173D" transform="translate(346,278)"/>
<path d="M0 0 C0.02685412 2.31243792 0.04632841 4.6249627 0.0625 6.9375 C0.07410156 8.22527344 0.08570312 9.51304688 0.09765625 10.83984375 C0 14 0 14 -1 15 C-3.22861804 15.07969892 -5.45799405 15.13857667 -7.6875 15.1875 C-13.95963906 15.52475745 -13.95963906 15.52475745 -18.875 19.0625 C-19.926875 20.5165625 -19.926875 20.5165625 -21 22 C-21.66 21.67 -22.32 21.34 -23 21 C-20.05226582 18.00292183 -17.09808792 15.01239506 -14.13769531 12.02783203 C-13.13100272 11.01106601 -12.12611034 9.99251438 -11.12304688 8.97216797 C-9.68305629 7.50798782 -8.23676744 6.05029795 -6.7890625 4.59375 C-5.91975098 3.71396484 -5.05043945 2.83417969 -4.15478516 1.92773438 C-2 0 -2 0 0 0 Z " fill="#9F4B57" transform="translate(106,81)"/>
<path d="M0 0 C3.93121644 5.24162193 6.71546606 10.86257107 9.6875 16.6875 C10.59725586 18.40743164 10.59725586 18.40743164 11.52539062 20.16210938 C14.90745646 26.80830625 16.80407078 31.52453004 16 39 C15.67 39 15.34 39 15 39 C15 36.36 15 33.72 15 31 C12.69 31 10.38 31 8 31 C7.67 25.72 7.34 20.44 7 15 C4.69 15 2.38 15 0 15 C0 10.05 0 5.1 0 0 Z " fill="#7B8DA0" transform="translate(380,173)"/>
<path d="M0 0 C2.97 0 5.94 0 9 0 C9.02685095 2.47923801 9.04676547 4.9581884 9.0625 7.4375 C9.07087891 8.14455078 9.07925781 8.85160156 9.08789062 9.58007812 C9.09653588 11.38693559 9.05220011 13.19387603 9 15 C8.67 15.33 8.34 15.66 8 16 C5.36 16 2.72 16 0 16 C0 10.72 0 5.44 0 0 Z " fill="#081C3B" transform="translate(239,246)"/>
<path d="M0 0 C2.29296875 0.1484375 2.29296875 0.1484375 5 1 C9.12583882 6.6741471 11.96052814 12.95612694 11 20 C10.34 20.33 9.68 20.66 9 21 C9 19.68 9 18.36 9 17 C6.36 17 3.72 17 1 17 C0.1679418 11.27959989 -0.12036664 5.77759884 0 0 Z " fill="#394663" transform="translate(396,212)"/>
<path d="M0 0 C1.98 0 3.96 0 6 0 C9.39366878 5.37330889 9.32712342 9.86946489 9 16 C6.03 16 3.06 16 0 16 C0 10.72 0 5.44 0 0 Z " fill="#99404F" transform="translate(188,230)"/>
<path d="M0 0 C3.56781619 4.75708826 5.75413677 9.66466859 8.1875 15.0625 C8.65091797 16.06861328 9.11433594 17.07472656 9.59179688 18.11132812 C10.02943359 19.07619141 10.46707031 20.04105469 10.91796875 21.03515625 C11.31781982 21.9156665 11.7176709 22.79617676 12.12963867 23.70336914 C13 26 13 26 13 29 C11.35 29 9.7 29 8 29 C8 25.7 8 22.4 8 19 C5.36 19 2.72 19 0 19 C0 12.73 0 6.46 0 0 Z " fill="#A35E6A" transform="translate(180,201)"/>
<path d="M0 0 C5.62957699 7.50610265 8.76461446 13.51878072 8 23 C2.25 23.125 2.25 23.125 0 22 C0 14.74 0 7.48 0 0 Z " fill="#243050" transform="translate(372,157)"/>
<path d="M0 0 C0 4.29 0 8.58 0 13 C-6.40495868 15.04958678 -6.40495868 15.04958678 -10 14.75 C-14.52446238 15.12703853 -16.87246624 17.89097236 -20 21 C-18.5450489 17.65215892 -16.70194509 15.45622627 -14.12109375 12.890625 C-13.36505859 12.13652344 -12.60902344 11.38242188 -11.83007812 10.60546875 C-11.04052734 9.82816406 -10.25097656 9.05085937 -9.4375 8.25 C-8.64408203 7.45722656 -7.85066406 6.66445312 -7.03320312 5.84765625 C-1.14025522 0 -1.14025522 0 0 0 Z " fill="#A04D5D" transform="translate(56,132)"/>
<path d="M0 0 C2.35365901 2.94725043 4.08098603 5.90167303 5.6875 9.3125 C6.12449219 10.21613281 6.56148437 11.11976563 7.01171875 12.05078125 C8 15 8 15 8 22 C2.39 22 -3.22 22 -9 22 C-9 21.67 -9 21.34 -9 21 C-5.7 21 -2.4 21 1 21 C0.835 20.13375 0.67 19.2675 0.5 18.375 C-0.39266231 12.30238178 -0.07639812 6.12033868 0 0 Z " fill="#975561" transform="translate(247,348)"/>
<path d="M0 0 C2.64 0 5.28 0 8 0 C7.55042492 4.7983494 5.60770673 6.95976029 2.25 10.3125 C1.38890625 11.19550781 0.5278125 12.07851562 -0.359375 12.98828125 C-3 15 -3 15 -5.765625 15.35546875 C-8 15 -8 15 -9 14 C-9.04080783 12.00041636 -9.04254356 9.99954746 -9 8 C-6.36 7.67 -3.72 7.34 -1 7 C-0.67 4.69 -0.34 2.38 0 0 Z " fill="#984A55" transform="translate(206,122)"/>
<path d="M0 0 C2.05078125 0.03255208 4.1015625 0.06510417 6.15234375 0.09765625 C7.50674043 2.8064496 7.21735826 5.10698893 7.15234375 8.09765625 C10.61734375 7.60265625 10.61734375 7.60265625 14.15234375 7.09765625 C13.19812567 8.24691891 12.2388233 9.39196166 11.27734375 10.53515625 C10.74367188 11.17324219 10.21 11.81132812 9.66015625 12.46875 C8.15234375 14.09765625 8.15234375 14.09765625 6.15234375 15.09765625 C6.15234375 12.78765625 6.15234375 10.47765625 6.15234375 8.09765625 C3.18234375 8.09765625 0.21234375 8.09765625 -2.84765625 8.09765625 C-2.89007348 5.7647085 -2.88858562 3.43063058 -2.84765625 1.09765625 C-1.84765625 0.09765625 -1.84765625 0.09765625 0 0 Z " fill="#162650" transform="translate(348.84765625,269.90234375)"/>
<path d="M0 0 C5.61 0 11.22 0 17 0 C17 1.98 17 3.96 17 6 C11.72 6.66 6.44 7.32 1 8 C0 6 0 6 0 0 Z " fill="#A15D6A" transform="translate(15,189)"/>
<path d="M0 0 C2.31 0 4.62 0 7 0 C7 4.95 7 9.9 7 15 C4.69 15 2.38 15 0 15 C0 10.05 0 5.1 0 0 Z " fill="#0A1738" transform="translate(257,123)"/>
<path d="M0 0 C-4.09526587 4.89434213 -8.26357085 9.70720334 -13 14 C-13.33 14 -13.66 14 -14 14 C-14 9.71 -14 5.42 -14 1 C-8.83430559 -0.79217969 -5.48946087 -1.12029814 0 0 Z " fill="#A25862" transform="translate(228,111)"/>
<path d="M0 0 C2.31 0 4.62 0 7 0 C7 5.28 7 10.56 7 16 C5.68 15.67 4.36 15.34 3 15 C0.03535091 9.81186409 -0.31111883 5.91125786 0 0 Z " fill="#20334C" transform="translate(207,188)"/>
<path d="M0 0 C-1.99603844 2.33682549 -3.9963721 4.66969364 -6 7 C-6.95132813 8.11181641 -6.95132813 8.11181641 -7.921875 9.24609375 C-8.54578125 9.96925781 -9.1696875 10.69242188 -9.8125 11.4375 C-10.39644531 12.11683594 -10.98039063 12.79617187 -11.58203125 13.49609375 C-12.04996094 13.99238281 -12.51789063 14.48867187 -13 15 C-13.33 15 -13.66 15 -14 15 C-13.67 10.38 -13.34 5.76 -13 1 C-8.61414671 0.29826347 -4.44209357 -0.10834375 0 0 Z " fill="#9E535A" transform="translate(243,95)"/>
<path d="M0 0 C0.33 0 0.66 0 1 0 C1 2.31 1 4.62 1 7 C3.31 7 5.62 7 8 7 C8 12.94 8 18.88 8 25 C3.50573083 20.50573083 0.44754441 12.35210759 -0.390625 6.07421875 C-0.375 3.625 -0.375 3.625 0 0 Z " fill="#4D5E72" transform="translate(264,312)"/>
<path d="M0 0 C2.5654594 2.5654594 2.54046087 4.47686668 3 8 C5.97 8.495 5.97 8.495 9 9 C9.33 12.3 9.66 15.6 10 19 C9.67 18.34 9.34 17.68 9 17 C7.35 17 5.7 17 4 17 C2.82845707 14.71070947 1.66261926 12.41881638 0.5 10.125 C0.16613281 9.47402344 -0.16773437 8.82304687 -0.51171875 8.15234375 C-3 3.2265625 -3 3.2265625 -3 1 C-2.01 0.67 -1.02 0.34 0 0 Z " fill="#8F424F" transform="translate(89,345)"/>
<path d="M0 0 C2.6906142 3.5874856 4.36237237 6.69416081 6.1875 10.75 C6.71730469 11.92046875 7.24710937 13.0909375 7.79296875 14.296875 C8.19128906 15.18890625 8.58960938 16.0809375 9 17 C6.03 17 3.06 17 0 17 C0 11.39 0 5.78 0 0 Z " fill="#293752" transform="translate(346,105)"/>
<path d="M0 0 C2.64 0 5.28 0 8 0 C8 3.3 8 6.6 8 10 C5.36 10 2.72 10 0 10 C0 6.7 0 3.4 0 0 Z " fill="#051742" transform="translate(256,170)"/>
<path d="M0 0 C0 1.98 0 3.96 0 6 C-1.36125 6.309375 -1.36125 6.309375 -2.75 6.625 C-6.86369274 8.36540847 -7.96076488 10.07258421 -10 14 C-10.79070548 17.23038842 -10.79070548 17.23038842 -11 20 C-14.3 20.66 -17.6 21.32 -21 22 C-19.50260417 20.27473958 -18.00520833 18.54947917 -16.5078125 16.82421875 C-14.8359553 14.86501788 -14.8359553 14.86501788 -13 12 C-12.34 12 -11.68 12 -11 12 C-10.75378906 11.42765625 -10.50757813 10.8553125 -10.25390625 10.265625 C-8.79788765 7.63481257 -7.08222766 5.85191095 -4.9375 3.75 C-4.22464844 3.04359375 -3.51179688 2.3371875 -2.77734375 1.609375 C-1 0 -1 0 0 0 Z " fill="#354166" transform="translate(248,133)"/>
<path d="M0 0 C1.30660357 4.29727397 0.6596762 7.60215865 0 12 C-5.94 12.495 -5.94 12.495 -12 13 C-8.17420552 8.44548277 -4.25602708 4.15469311 0 0 Z " fill="#48576C" transform="translate(271,109)"/>
<path d="M0 0 C2.69082872 0.17635452 5.32851446 0.61835921 8 1 C8.09765625 7.15234375 8.09765625 7.15234375 8 9 C7 10 7 10 3.4375 10.0625 C2.303125 10.041875 1.16875 10.02125 0 10 C-0.19412181 8.52168779 -0.38012131 7.04230684 -0.5625 5.5625 C-0.66691406 4.73878906 -0.77132812 3.91507812 -0.87890625 3.06640625 C-0.91886719 2.38449219 -0.95882812 1.70257813 -1 1 C-0.67 0.67 -0.34 0.34 0 0 Z " fill="#B3495D" transform="translate(122,62)"/>
<path d="M0 0 C5.62957699 7.50610265 8.76461446 13.51878072 8 23 C7.67 23 7.34 23 7 23 C7 20.36 7 17.72 7 15 C4.69 15 2.38 15 0 15 C0 10.05 0 5.1 0 0 Z " fill="#636F87" transform="translate(380,173)"/>
<path d="M0 0 C3.3 0 6.6 0 10 0 C10 2.31 10 4.62 10 7 C6.7 7 3.4 7 0 7 C0 4.69 0 2.38 0 0 Z " fill="#8F3F4E" transform="translate(238,362)"/>
<path d="M0 0 C2.31 0 4.62 0 7 0 C7.33 5.28 7.66 10.56 8 16 C7.34 16 6.68 16 6 16 C4.99303432 13.89915791 3.9946411 11.79420511 3 9.6875 C2.443125 8.51574219 1.88625 7.34398437 1.3125 6.13671875 C0 3 0 3 0 0 Z " fill="#974352" transform="translate(33,230)"/>
<path d="M0 0 C0 1.65 0 3.3 0 5 C-0.94875 5.45375 -1.8975 5.9075 -2.875 6.375 C-6.00313679 7.80238254 -6.00313679 7.80238254 -8 10 C-8.39764263 11.98821313 -8.73775349 13.98944339 -9 16 C-10.010625 16.20625 -11.02125 16.4125 -12.0625 16.625 C-16.64907657 17.89800901 -19.6373197 20.74974974 -23 24 C-21.46213169 20.3468423 -19.26051042 18.016051 -16.46484375 15.234375 C-15.57345703 14.34492187 -14.68207031 13.45546875 -13.76367188 12.5390625 C-12.3647168 11.15847656 -12.3647168 11.15847656 -10.9375 9.75 C-9.99113361 8.8050908 -9.04516564 7.85978238 -8.09960938 6.9140625 C-1.14019224 0 -1.14019224 0 0 0 Z " fill="#A2535F" transform="translate(81,106)"/>
<path d="M0 0 C1.2065625 0.0309375 1.2065625 0.0309375 2.4375 0.0625 C2.4375 2.7025 2.4375 5.3425 2.4375 8.0625 C-1.5225 8.0625 -5.4825 8.0625 -9.5625 8.0625 C-2.72961957 0.06657609 -2.72961957 0.06657609 0 0 Z " fill="#914253" transform="translate(45.5625,145.9375)"/>
<path d="M0 0 C2.31 0 4.62 0 7 0 C7 5.28 7 10.56 7 16 C4.73978833 12.98638444 3.28909249 10.78104851 1.8125 7.4375 C1.29623047 6.29087891 1.29623047 6.29087891 0.76953125 5.12109375 C0 3 0 3 0 0 Z " fill="#3C5368" transform="translate(231,246)"/>
<path d="M0 0 C1.98 0 3.96 0 6 0 C7.49106457 2.98212913 7.11941467 5.71609658 7 9 C6 10 6 10 2.9375 10.0625 C1.968125 10.041875 0.99875 10.02125 0 10 C0 6.7 0 3.4 0 0 Z " fill="#06183B" transform="translate(273,112)"/>
<path d="M0 0 C2.64 0 5.28 0 8 0 C8 2.64 8 5.28 8 8 C5.36 8 2.72 8 0 8 C0 5.36 0 2.72 0 0 Z " fill="#A8525C" transform="translate(148,146)"/>
<path d="M0 0 C2.64 0 5.28 0 8 0 C8.04241723 2.33294775 8.04092937 4.66702567 8 7 C7 8 7 8 3.4375 8.0625 C2.303125 8.041875 1.16875 8.02125 0 8 C0 5.36 0 2.72 0 0 Z " fill="#A43B43" transform="translate(206,104)"/>
<path d="M0 0 C2.64 0 5.28 0 8 0 C8.04241723 2.33294775 8.04092937 4.66702567 8 7 C7 8 7 8 3.4375 8.0625 C2.303125 8.041875 1.16875 8.02125 0 8 C0 5.36 0 2.72 0 0 Z " fill="#192D5A" transform="translate(314,80)"/>
<path d="M0 0 C-0.33 0.33 -0.66 0.66 -1 1 C-1.23075082 2.34747084 -1.41153063 3.70377565 -1.5625 5.0625 C-1.706875 6.361875 -1.85125 7.66125 -2 9 C-2.33 8.34 -2.66 7.68 -3 7 C-4.98 7 -6.96 7 -9 7 C-9 9.97 -9 12.94 -9 16 C-9.33 16 -9.66 16 -10 16 C-10.1080023 13.89695523 -10.18558987 11.79233091 -10.25 9.6875 C-10.31960938 7.92986328 -10.31960938 7.92986328 -10.390625 6.13671875 C-10 3 -10 3 -8.1171875 1.12890625 C-3.09642857 -1.54821429 -3.09642857 -1.54821429 0 0 Z " fill="#142542" transform="translate(282,105)"/>
<path d="M0 0 C2.31 0 4.62 0 7 0 C7 4.95 7 9.9 7 15 C4.7197488 11.95966506 3.28706127 9.75349671 1.8125 6.375 C1.46832031 5.59898437 1.12414062 4.82296875 0.76953125 4.0234375 C0 2 0 2 0 0 Z " fill="#7D89A4" transform="translate(215,212)"/>
<path d="M0 0 C3.3 0 6.6 0 10 0 C8.71875 5.125 8.71875 5.125 6 7 C2.8125 7.1875 2.8125 7.1875 0 7 C0 4.69 0 2.38 0 0 Z " fill="#93484F" transform="translate(238,88)"/>
<path d="M0 0 C2.60526888 2.60526888 3.34134224 5.17939234 4.625 8.625 C5.29402344 10.40777344 5.29402344 10.40777344 5.9765625 12.2265625 C6.31429687 13.14179688 6.65203125 14.05703125 7 15 C5.35 15 3.7 15 2 15 C1.67 15.66 1.34 16.32 1 17 C-0.53266582 13.93466836 -0.10276471 10.73245728 -0.0625 7.375 C-0.05798828 6.66859375 -0.05347656 5.9621875 -0.04882812 5.234375 C-0.03703875 3.48954725 -0.01910324 1.744763 0 0 Z " fill="#A55C65" transform="translate(213,273)"/>
<path d="M0 0 C2.31 0 4.62 0 7 0 C7 4.95 7 9.9 7 15 C4.39473112 12.39473112 3.65865776 9.82060766 2.375 6.375 C1.92898437 5.18648437 1.48296875 3.99796875 1.0234375 2.7734375 C0.68570313 1.85820312 0.34796875 0.94296875 0 0 Z " fill="#4D5C73" transform="translate(223,230)"/>
<path d="M0 0 C2.05078125 0.03255208 4.1015625 0.06510417 6.15234375 0.09765625 C5.40234375 4.84765625 5.40234375 4.84765625 3.15234375 7.09765625 C0.02734375 7.22265625 0.02734375 7.22265625 -2.84765625 7.09765625 C-2.89019981 5.09810879 -2.88846408 3.09723989 -2.84765625 1.09765625 C-1.84765625 0.09765625 -1.84765625 0.09765625 0 0 Z " fill="#121F40" transform="translate(398.84765625,229.90234375)"/>
<path d="M0 0 C2.31 0 4.62 0 7 0 C7 2.64 7 5.28 7 8 C4.69 8 2.38 8 0 8 C0 5.36 0 2.72 0 0 Z " fill="#354865" transform="translate(388,204)"/>
<path d="M0 0 C2.31 0 4.62 0 7 0 C7 2.64 7 5.28 7 8 C4.69 8 2.38 8 0 8 C0 5.36 0 2.72 0 0 Z " fill="#061539" transform="translate(372,180)"/>
<path d="M0 0 C2.64 0 5.28 0 8 0 C8 2.31 8 4.62 8 7 C5.36 7 2.72 7 0 7 C0 4.69 0 2.38 0 0 Z " fill="#8B4A52" transform="translate(148,154)"/>
<path d="M0 0 C2.31 0 4.62 0 7 0 C7 2.64 7 5.28 7 8 C4.69 8 2.38 8 0 8 C0 5.36 0 2.72 0 0 Z " fill="#041239" transform="translate(330,88)"/>
<path d="M0 0 C1.99954746 -0.04254356 4.00041636 -0.04080783 6 0 C7 1 7 1 7.0625 4.5625 C7.041875 5.696875 7.02125 6.83125 7 8 C4.69 8 2.38 8 0 8 C0 5.36 0 2.72 0 0 Z " fill="#93454D" transform="translate(222,103)"/>
<path d="M0 0 C1.98 0 3.96 0 6 0 C7.35439668 2.70879335 7.06501451 5.00933268 7 8 C4.69 8 2.38 8 0 8 C0 5.36 0 2.72 0 0 Z " fill="#061838" transform="translate(249,270)"/>
<path d="M0 0 C2.97 0 5.94 0 9 0 C9 1.98 9 3.96 9 6 C6.03 6 3.06 6 0 6 C0 4.02 0 2.04 0 0 Z " fill="#E6C3CA" transform="translate(288,31)"/>
<path d="M0 0 C2.64 0 5.28 0 8 0 C8.125 2.375 8.125 2.375 8 5 C6 7 6 7 3.4375 7.1875 C1 7 1 7 0 6 C-0.04080783 4.00041636 -0.04254356 1.99954746 0 0 Z " fill="#94424B" transform="translate(197,130)"/>
<path d="M0 0 C2.31 0 4.62 0 7 0 C7 4.62 7 9.24 7 14 C4.51169497 11.51169497 3.69174309 9.1322066 2.375 5.875 C1.92898437 4.77929688 1.48296875 3.68359375 1.0234375 2.5546875 C0.68570313 1.71164062 0.34796875 0.86859375 0 0 Z " fill="#808AA4" transform="translate(249,288)"/>
<path d="M0 0 C2.31 0.33 4.62 0.66 7 1 C7.33 3.31 7.66 5.62 8 8 C5.36 8 2.72 8 0 8 C0 5.36 0 2.72 0 0 Z " fill="#344565" transform="translate(214,204)"/>
<path d="M0 0 C2.31 0 4.62 0 7 0 C7 2.31 7 4.62 7 7 C4.69 7 2.38 7 0 7 C0 4.69 0 2.38 0 0 Z " fill="#071741" transform="translate(314,312)"/>
<path d="M0 0 C2.47543247 3.30057663 3.76116089 5.51200786 5.1875 9.25 C5.53167969 10.14203125 5.87585938 11.0340625 6.23046875 11.953125 C6.48441406 12.62859375 6.73835937 13.3040625 7 14 C4.69 13.67 2.38 13.34 0 13 C0 8.71 0 4.42 0 0 Z " fill="#B16F7C" transform="translate(221,291)"/>
<path d="M0 0 C1.98 0 3.96 0 6 0 C6.625 2.875 6.625 2.875 7 6 C6.34 6.66 5.68 7.32 5 8 C2.375 7.625 2.375 7.625 0 7 C0 4.69 0 2.38 0 0 Z " fill="#AE4F59" transform="translate(215,104)"/>
<path d="M0 0 C2.31 0 4.62 0 7 0 C7 2.31 7 4.62 7 7 C4.69 7 2.38 7 0 7 C0 4.69 0 2.38 0 0 Z " fill="#05153A" transform="translate(330,296)"/>
<path d="M0 0 C2.31 0 4.62 0 7 0 C7 4.62 7 9.24 7 14 C6.67 14 6.34 14 6 14 C6 12.35 6 10.7 6 9 C5.01 8.67 4.02 8.34 3 8 C2.05078125 6.15234375 2.05078125 6.15234375 1.3125 3.9375 C1.06113281 3.20402344 0.80976563 2.47054688 0.55078125 1.71484375 C0.36902344 1.14894531 0.18726563 0.58304687 0 0 Z " fill="#7A879D" transform="translate(241,270)"/>
<path d="M0 0 C1.54578627 3.09157253 0.60277633 5.68473019 0 9 C-1 10 -1 10 -4.0625 10.0625 C-5.031875 10.041875 -6.00125 10.02125 -7 10 C-6.84518205 7.29068581 -6.51827919 5.53415961 -4.59765625 3.5546875 C-3.10228292 2.32320358 -1.5537076 1.1570163 0 0 Z " fill="#232A47" transform="translate(214,170)"/>
<path d="M0 0 C2.31954564 3.09272752 3.71720383 5.30240897 5.1875 8.75 C5.70376953 9.94882813 5.70376953 9.94882813 6.23046875 11.171875 C6.61138672 12.07679688 6.61138672 12.07679688 7 13 C4.69 13 2.38 13 0 13 C0 8.71 0 4.42 0 0 Z " fill="#616D88" transform="translate(372,157)"/>
<path d="M0 0 C1.54627671 2.31941506 2.86182828 4.52979752 4.125 7 C4.47820312 7.680625 4.83140625 8.36125 5.1953125 9.0625 C6 11 6 11 6 14 C4.33388095 14.042721 2.66617115 14.04063832 1 14 C0 13 0 13 -0.09765625 10.05859375 C-0.08605469 8.86363281 -0.07445312 7.66867188 -0.0625 6.4375 C-0.05347656 5.23996094 -0.04445312 4.04242188 -0.03515625 2.80859375 C-0.02355469 1.88175781 -0.01195312 0.95492187 0 0 Z " fill="#AE5E6D" transform="translate(198,240)"/>
<path d="M0 0 C2.3125 0.0625 2.3125 0.0625 5 1 C6.8125 4.5625 6.8125 4.5625 8 8 C5.36 8 2.72 8 0 8 C0 5.36 0 2.72 0 0 Z " fill="#707F98" transform="translate(396,212)"/>
<path d="M0 0 C2.31 0 4.62 0 7 0 C7 2.31 7 4.62 7 7 C5.00045254 7.04254356 2.99958364 7.04080783 1 7 C0 6 0 6 -0.0625 2.9375 C-0.041875 1.968125 -0.02125 0.99875 0 0 Z " fill="#051434" transform="translate(356,139)"/>
<path d="M0 0 C2.31 0 4.62 0 7 0 C7 2.31 7 4.62 7 7 C5.00045254 7.04254356 2.99958364 7.04080783 1 7 C0 6 0 6 -0.0625 2.9375 C-0.041875 1.968125 -0.02125 0.99875 0 0 Z " fill="#051739" transform="translate(338,105)"/>
<path d="M0 0 C0 5.28 0 10.56 0 16 C-5.18421053 9.0877193 -5.18421053 9.0877193 -4.8125 4.875 C-3.93599809 2.85230329 -2.505379 0 0 0 Z " fill="#8E95A7" transform="translate(206,176)"/>
<path d="M0 0 C2.31 0 4.62 0 7 0 C7 2.64 7 5.28 7 8 C5.35 7.67 3.7 7.34 2 7 C1.34 4.69 0.68 2.38 0 0 Z " fill="#4C5574" transform="translate(257,304)"/>
<path d="M0 0 C0 1.65 0 3.3 0 5 C-0.763125 5.20625 -1.52625 5.4125 -2.3125 5.625 C-5.27265421 6.80459943 -5.27265421 6.80459943 -6.5 10 C-8 13 -8 13 -10.5625 14.3125 C-11.366875 14.539375 -12.17125 14.76625 -13 15 C-13.99 15.495 -13.99 15.495 -15 16 C-13.33830526 11.69422496 -10.16919694 8.90988145 -6.9375 5.75 C-6.38255859 5.19570312 -5.82761719 4.64140625 -5.25585938 4.0703125 C-1.14043257 0 -1.14043257 0 0 0 Z " fill="#59677E" transform="translate(288,92)"/>
<path d="M0 0 C2.97 0 5.94 0 9 0 C7 4 7 4 5 6 C2.375 6.125 2.375 6.125 0 6 C0 4.02 0 2.04 0 0 Z " fill="#81535D" transform="translate(288,39)"/>
<path d="M0 0 C2.31 0 4.62 0 7 0 C6.25 4.75 6.25 4.75 4 7 C2.68 7 1.36 7 0 7 C0 4.69 0 2.38 0 0 Z " fill="#954452" transform="translate(256,72)"/>
<path d="M0 0 C1.98 0 3.96 0 6 0 C6 2.31 6 4.62 6 7 C4.02 7 2.04 7 0 7 C0 4.69 0 2.38 0 0 Z " fill="#051738" transform="translate(231,230)"/>
<path d="M0 0 C1.2065625 0.0309375 1.2065625 0.0309375 2.4375 0.0625 C2.4375 2.3725 2.4375 4.6825 2.4375 7.0625 C0.4575 7.0625 -1.5225 7.0625 -3.5625 7.0625 C-3.60504356 5.06295254 -3.60330783 3.06208364 -3.5625 1.0625 C-2.5625 0.0625 -2.5625 0.0625 0 0 Z " fill="#041439" transform="translate(326.5625,303.9375)"/>
<path d="M0 0 C1.2065625 0.0309375 1.2065625 0.0309375 2.4375 0.0625 C2.4375 2.3725 2.4375 4.6825 2.4375 7.0625 C0.4575 7.0625 -1.5225 7.0625 -3.5625 7.0625 C-3.60504356 5.06295254 -3.60330783 3.06208364 -3.5625 1.0625 C-2.5625 0.0625 -2.5625 0.0625 0 0 Z " fill="#071538" transform="translate(360.5625,269.9375)"/>
<path d="M0 0 C3.32993034 3.82941989 5.05324525 8.37522222 7 13 C5.35 13 3.7 13 2 13 C0.54815522 8.46298506 -0.23509196 4.81938524 0 0 Z " fill="#3C4861" transform="translate(364,141)"/>
<path d="M0 0 C3.32993034 3.82941989 5.05324525 8.37522222 7 13 C5.35 13 3.7 13 2 13 C0.54815522 8.46298506 -0.23509196 4.81938524 0 0 Z " fill="#404D65" transform="translate(356,125)"/>
<path d="M0 0 C0.04241723 2.33294775 0.04092937 4.66702567 0 7 C-1 8 -1 8 -4.0625 8.0625 C-5.031875 8.041875 -6.00125 8.02125 -7 8 C-6.44414399 4.1090079 -4.34122117 0 0 0 Z " fill="#994855" transform="translate(122,64)"/>
<path d="M0 0 C1.98 0 3.96 0 6 0 C6 2.64 6 5.28 6 8 C4.125 7.75 4.125 7.75 2 7 C0.27898465 4.41847698 0 3.15081975 0 0 Z " fill="#7B8EA4" transform="translate(208,196)"/>
<path d="M0 0 C0 1.98 0 3.96 0 6 C-1.36125 6.309375 -1.36125 6.309375 -2.75 6.625 C-6.75732776 8.3204079 -7.89484661 10.27549784 -10 14 C-10.99 13.34 -11.98 12.68 -13 12 C-12.34 12 -11.68 12 -11 12 C-10.75378906 11.42765625 -10.50757813 10.8553125 -10.25390625 10.265625 C-8.79788765 7.63481257 -7.08222766 5.85191095 -4.9375 3.75 C-4.22464844 3.04359375 -3.51179687 2.3371875 -2.77734375 1.609375 C-1 0 -1 0 0 0 Z " fill="#69718F" transform="translate(248,133)"/>
<path d="M0 0 C0.99 0.33 1.98 0.66 3 1 C2.67 2.98 2.34 4.96 2 7 C-0.97 7 -3.94 7 -7 7 C-4.66666667 4.66666667 -2.33333333 2.33333333 0 0 Z " fill="#8E404D" transform="translate(138,47)"/>
<path d="M0 0 C2.97 0 5.94 0 9 0 C7.02 2.31 5.04 4.62 3 7 C0 3.375 0 3.375 0 0 Z " fill="#3E475D" transform="translate(280,354)"/>
<path d="M0 0 C1.98 0 3.96 0 6 0 C6 1.98 6 3.96 6 6 C4.02 6 2.04 6 0 6 C0 4.02 0 2.04 0 0 Z " fill="#8A4750" transform="translate(173,155)"/>
<path d="M0 0 C0.33 0 0.66 0 1 0 C1 4.62 1 9.24 1 14 C0.67 14 0.34 14 0 14 C0 11.69 0 9.38 0 7 C-1.98 7 -3.96 7 -6 7 C-5.02433888 5.83040013 -4.044375 4.66438823 -3.0625 3.5 C-2.51722656 2.8503125 -1.97195312 2.200625 -1.41015625 1.53125 C-0.71212891 0.77328125 -0.71212891 0.77328125 0 0 Z " fill="#515C77" transform="translate(256,124)"/>
<path d="M0 0 C2.64 0 5.28 0 8 0 C6.71480435 2.86697492 5.42870746 4.97607712 3 7 C2.34 7 1.68 7 1 7 C0.67 4.69 0.34 2.38 0 0 Z " fill="#FBE7EB" transform="translate(298,30)"/>
<path d="M0 0 C1.56073255 2.34109882 2.86373867 4.56333403 4.125 7.0625 C4.47820312 7.75472656 4.83140625 8.44695312 5.1953125 9.16015625 C6 11 6 11 6 13 C4.35 13 2.7 13 1 13 C0.67 8.71 0.34 4.42 0 0 Z " fill="#B9798A" transform="translate(229,308)"/>
<path d="M0 0 C0 2.31 0 4.62 0 7 C-2.31 7 -4.62 7 -7 7 C-3.86206897 0 -3.86206897 0 0 0 Z " fill="#8F414D" transform="translate(106,81)"/>
<path d="M0 0 C0 1.98 0 3.96 0 6 C-2.31 6.33 -4.62 6.66 -7 7 C-6.22006468 2.47637516 -4.81844319 0 0 0 Z " fill="#233055" transform="translate(229,155)"/>
<path d="M0 0 C3.00617269 3.00617269 2.59585316 5.82381598 3 10 C2.01 10.495 2.01 10.495 1 11 C0.32845067 9.71086513 -0.33708859 8.41859796 -1 7.125 C-1.37125 6.40570313 -1.7425 5.68640625 -2.125 4.9453125 C-3 3 -3 3 -3 1 C-2.01 0.67 -1.02 0.34 0 0 Z " fill="#9A4D5A" transform="translate(89,345)"/>
<path d="M0 0 C0.66 0.33 1.32 0.66 2 1 C1.67 2.98 1.34 4.96 1 7 C3.97 7 6.94 7 10 7 C10 7.33 10 7.66 10 8 C5.545 8.495 5.545 8.495 1 9 C1 10.98 1 12.96 1 15 C-1.36556709 12.63443291 -1.58244041 11.25696479 -2 8 C-1.67 7.67 -1.34 7.34 -1 7 C-0.63239269 4.67182036 -0.29758419 2.3381615 0 0 Z " fill="#A64E5A" transform="translate(80,320)"/>
<path d="M0 0 C3.10916259 4.14555012 4.31562636 7.18750388 6 12 C4.35 12 2.7 12 1 12 C0.67 8.04 0.34 4.08 0 0 Z " fill="#C27E90" transform="translate(237,326)"/>
<path d="M0 0 C1.98 0 3.96 0 6 0 C2.375 5.75 2.375 5.75 -1 8 C-1.125 2.25 -1.125 2.25 0 0 Z " fill="#313E5A" transform="translate(338,296)"/>
<path d="M0 0 C1.65 0 3.3 0 5 0 C5 2.64 5 5.28 5 8 C2 7 2 7 0.8125 5.125 C0 3 0 3 0 0 Z " fill="#914551" transform="translate(17,196)"/>
<path d="M0 0 C2.28459758 2.28459758 2.97129748 4.12537344 4.125 7.125 C4.47820312 8.03507812 4.83140625 8.94515625 5.1953125 9.8828125 C5.46085938 10.58148438 5.72640625 11.28015625 6 12 C4.35 12 2.7 12 1 12 C0.67 8.04 0.34 4.08 0 0 Z " fill="#B17481" transform="translate(248,350)"/>
<path d="M0 0 C1.65 0 3.3 0 5 0 C5.33 3.96 5.66 7.92 6 12 C4.28982274 9.4347341 3.09582189 7.12039035 1.875 4.3125 C1.52179687 3.50425781 1.16859375 2.69601562 0.8046875 1.86328125 C0.53914063 1.24839844 0.27359375 0.63351563 0 0 Z " fill="#A95D6B" transform="translate(43,254)"/>
<path d="M0 0 C0.33 0 0.66 0 1 0 C1.09765625 6.15234375 1.09765625 6.15234375 1 8 C0 9 0 9 -1.84765625 9.09765625 C-3.8984375 9.06510417 -5.94921875 9.03255208 -8 9 C-7.67 8.34 -7.34 7.68 -7 7 C-5.02 7 -3.04 7 -1 7 C-1.020625 6.030625 -1.04125 5.06125 -1.0625 4.0625 C-1 1 -1 1 0 0 Z " fill="#1B2851" transform="translate(238,146)"/>
<path d="M0 0 C2.31 0 4.62 0 7 0 C6.02433888 1.16959987 5.044375 2.33561177 4.0625 3.5 C3.51722656 4.1496875 2.97195313 4.799375 2.41015625 5.46875 C1.94480469 5.9740625 1.47945313 6.479375 1 7 C0.67 7 0.34 7 0 7 C0 4.69 0 2.38 0 0 Z " fill="#202E4D" transform="translate(322,312)"/>
<path d="M0 0 C2.31 0 4.62 0 7 0 C6.02433888 1.16959987 5.044375 2.33561177 4.0625 3.5 C3.51722656 4.1496875 2.97195313 4.799375 2.41015625 5.46875 C1.94480469 5.9740625 1.47945313 6.479375 1 7 C0.67 7 0.34 7 0 7 C0 4.69 0 2.38 0 0 Z " fill="#2A3A54" transform="translate(330,304)"/>
<path d="M0 0 C5 7.5 5 7.5 5 12 C3.68 12 2.36 12 1 12 C0.67 8.04 0.34 4.08 0 0 Z " fill="#AF747C" transform="translate(214,275)"/>
<path d="M0 0 C0.33 0 0.66 0 1 0 C1 2.31 1 4.62 1 7 C-1.31 7 -3.62 7 -6 7 C-5.02433888 5.83040013 -4.044375 4.66438823 -3.0625 3.5 C-2.51722656 2.8503125 -1.97195312 2.200625 -1.41015625 1.53125 C-0.71212891 0.77328125 -0.71212891 0.77328125 0 0 Z " fill="#984450" transform="translate(113,73)"/>
<path d="M0 0 C0.66 0 1.32 0 2 0 C2 1.98 2 3.96 2 6 C-0.31 6 -2.62 6 -5 6 C-3.38405168 3.95880212 -1.7143618 1.95927063 0 0 Z " fill="#963C4C" transform="translate(128,56)"/>
<path d="M0 0 C-0.97566112 1.16959987 -1.955625 2.33561177 -2.9375 3.5 C-3.48277344 4.1496875 -4.02804687 4.799375 -4.58984375 5.46875 C-5.05519531 5.9740625 -5.52054687 6.479375 -6 7 C-6.33 7 -6.66 7 -7 7 C-7 5.02 -7 3.04 -7 1 C-4.53721199 -0.231394 -2.7204945 -0.07159196 0 0 Z " fill="#192543" transform="translate(353,287)"/>
<path d="M0 0 C1.98 0 3.96 0 6 0 C4.63016497 3.16115776 4.0109362 3.9927092 1 6 C0 5 0 5 -0.0625 2.4375 C-0.041875 1.633125 -0.02125 0.82875 0 0 Z " fill="#2B3853" transform="translate(314,321)"/>
<path d="M0 0 C2.475 0.495 2.475 0.495 5 1 C5 3.97 5 6.94 5 10 C2.90217213 7.90217213 2.3490604 6.6200793 1.375 3.875 C1.11460937 3.15054687 0.85421875 2.42609375 0.5859375 1.6796875 C0.39257812 1.12539063 0.19921875 0.57109375 0 0 Z " fill="#7F909A" transform="translate(267,327)"/>
<path d="M0 0 C1.65 0 3.3 0 5 0 C4.02433888 1.16959987 3.044375 2.33561177 2.0625 3.5 C1.51722656 4.1496875 0.97195313 4.799375 0.41015625 5.46875 C-0.05519531 5.9740625 -0.52054687 6.479375 -1 7 C-1.33 7 -1.66 7 -2 7 C-2 5.35 -2 3.7 -2 2 C-1.34 2 -0.68 2 0 2 C0 1.34 0 0.68 0 0 Z " fill="#38455F" transform="translate(358,277)"/>
<path d="M0 0 C1.65 0 3.3 0 5 0 C5 2.31 5 4.62 5 7 C4.34 7 3.68 7 3 7 C2.01 4.69 1.02 2.38 0 0 Z " fill="#8E525E" transform="translate(93,362)"/>
<path d="M0 0 C2.672336 3.56311466 3.77263971 5.84585747 5 10 C3.68 10 2.36 10 1 10 C0.67 6.7 0.34 3.4 0 0 Z " fill="#BE848F" transform="translate(180,201)"/>
<path d="M0 0 C0.33 0 0.66 0 1 0 C1 2.31 1 4.62 1 7 C1.99 7.33 2.98 7.66 4 8 C2.68 8.99 1.36 9.98 0 11 C0 10.01 0 9.02 0 8 C-1.98 8 -3.96 8 -6 8 C-6 7.67 -6 7.34 -6 7 C-4.02 7 -2.04 7 0 7 C0 4.69 0 2.38 0 0 Z " fill="#B0586A" transform="translate(263,64)"/>
<path d="M0 0 C0.33 0 0.66 0 1 0 C1 2.31 1 4.62 1 7 C-0.98 7 -2.96 7 -5 7 C-4.19152271 5.83054208 -3.37810888 4.66449539 -2.5625 3.5 C-2.11003906 2.8503125 -1.65757812 2.200625 -1.19140625 1.53125 C-0.79824219 1.0259375 -0.40507812 0.520625 0 0 Z " fill="#5F6386" transform="translate(313,65)"/>
<path d="M0 0 C2.475 0.495 2.475 0.495 5 1 C5 3.64 5 6.28 5 9 C2.67527795 6.14693203 1.2491742 3.45925163 0 0 Z " fill="#5F6981" transform="translate(275,345)"/>
<path d="M0 0 C0.33 0 0.66 0 1 0 C1 1.98 1 3.96 1 6 C-1.31 6 -3.62 6 -6 6 C-4 4 -2 2 0 0 Z " fill="#8D404B" transform="translate(89,98)"/>
<path d="M0 0 C0.33 0 0.66 0 1 0 C1 1.98 1 3.96 1 6 C2.98 6.495 2.98 6.495 5 7 C3.35 8.65 1.7 10.3 0 12 C0 8.04 0 4.08 0 0 Z " fill="#B06976" transform="translate(271,55)"/>
<path d="M0 0 C2.15377564 2.62198774 3.40072174 4.64404172 4 8 C2.35 8 0.7 8 -1 8 C-0.67 5.36 -0.34 2.72 0 0 Z " fill="#BEA9AB" transform="translate(257,370)"/>
<path d="M0 0 C1.98 0 3.96 0 6 0 C4.35830472 2.02054804 2.69088222 4.02043058 1 6 C0.67 6 0.34 6 0 6 C0 4.02 0 2.04 0 0 Z " fill="#2E3C57" transform="translate(371,262)"/>
<path d="M0 0 C1.98 0 3.96 0 6 0 C4.35830472 2.02054804 2.69088222 4.02043058 1 6 C0.67 6 0.34 6 0 6 C0 4.02 0 2.04 0 0 Z " fill="#B38088" transform="translate(180,154)"/>
<path d="M0 0 C0.33 0 0.66 0 1 0 C1 1.98 1 3.96 1 6 C-0.98 6 -2.96 6 -5 6 C-3.35830472 3.97945196 -1.69088222 1.97956942 0 0 Z " fill="#90424D" transform="translate(97,90)"/>
<path d="M0 0 C0.33 0 0.66 0 1 0 C1 1.98 1 3.96 1 6 C-0.98 6 -2.96 6 -5 6 C-3.35830472 3.97945196 -1.69088222 1.97956942 0 0 Z " fill="#737A93" transform="translate(297,82)"/>
<path d="M0 0 C0.33 0 0.66 0 1 0 C1 1.98 1 3.96 1 6 C-0.98 6 -2.96 6 -5 6 C-3.35830472 3.97945196 -1.69088222 1.97956942 0 0 Z " fill="#747998" transform="translate(305,74)"/>
<path d="M0 0 C1.32 0 2.64 0 4 0 C4 2.64 4 5.28 4 8 C1.84622436 5.37801226 0.59927826 3.35595828 0 0 Z " fill="#8295A6" transform="translate(234,254)"/>
<path d="M0 0 C1.98 0 3.96 0 6 0 C4.71937515 1.7074998 3.38232443 3.37373596 2 5 C1.34 5 0.68 5 0 5 C0 3.35 0 1.7 0 0 Z " fill="#263354" transform="translate(395,237)"/>
<path d="M0 0 C1.65 0 3.3 0 5 0 C3.35 1.98 1.7 3.96 0 6 C-1.125 2.25 -1.125 2.25 0 0 Z " fill="#A7747B" transform="translate(189,146)"/>
<path d="M0 0 C1.32 0 2.64 0 4 0 C2.63016497 3.16115776 2.0109362 3.9927092 -1 6 C-1.042721 4.33388095 -1.04063832 2.66617115 -1 1 C-0.67 0.67 -0.34 0.34 0 0 Z " fill="#B17A80" transform="translate(230,104)"/>
<path d="M0 0 C1.32 0.33 2.64 0.66 4 1 C4.33 3.64 4.66 6.28 5 9 C2.67527795 6.14693203 1.2491742 3.45925163 0 0 Z " fill="#AF6774" transform="translate(27,220)"/>
</svg>
