<svg width="120.00000000000001" height="120.00000000000001" xmlns="http://www.w3.org/2000/svg" version="1.1" xml:space="preserve">
 <g>
  <title>Layer 1</title>
  <g id="svg_1" opacity="0.8">
   <path class="st0" d="m77.84808,31.49859c-0.4,0 -0.7,0.1 -1.1,0.1c-18.8,0 -37.7,0 -56.5,0l-1.1,0l0,-24.7l58.7,0c-0.1,8.1 -0.1,16.4 0,24.6c-0.1,0 0,0 0,0" fill="#F4A200" id="svg_2"/>
   <path class="st0" d="m77.74808,90.29859c0,-19.5 0,-39 0,-58.4c0,-0.1 0,-0.2 0,-0.4c0,0 0,0 0,0c8.2,0 16.4,0 24.7,0l0,58.7l-24.7,0.1l0,0z" fill="#F4A200" id="svg_3"/>
   <polyline class="st0" points="77.74806547164917,90.19857573509216 77.74806547164917,114.89858794212341 19.148087978363037,114.89858794212341 19.148087978363037,90.29858183860779 77.74806547164917,90.29858183860779 77.74806547164917,90.19857573509216 " fill="#F4A200" id="svg_4"/>
   <path class="st1" d="m448.44808,59.09859c-0.2,-1 -0.5,-2.1 -0.8,-3.1c-0.9,-3.3 -3.3,-4.9 -6.5,-5.7c-2.7,-0.6 -5.5,-0.4 -8,0.7c-2.3,1 -3.9,2.8 -4.1,5.4c-0.2,2.4 0.9,4.8 3.4,5.8c2.4,1 5,1.5 7.5,2.2c4.8,1.2 9.8,1.7 14.5,3.6c4.3,1.8 8.1,4.3 10,8.7c3,6.8 2.7,13.5 -1.7,19.6c-2.5,3.6 -6.2,5.7 -10.2,7.2c-3.2,1.2 -6.6,1.8 -10,2c-6,0.4 -11.8,0 -17.4,-2.2c-7.1,-2.7 -11.6,-7.7 -13.1,-15.3c-0.3,-1.5 -0.5,-3 -0.7,-4.6l16,0c0.5,2.4 1,4.8 2.9,6.7c1.9,1.9 4.2,2.8 6.7,3.1c3.3,0.3 6.7,0.1 9.7,-1.5c2.3,-1.2 3.6,-3 3.6,-5.5c0,-2.7 -1.5,-4.7 -3.9,-5.7c-2.2,-0.9 -4.5,-1.5 -6.8,-2.1c-4.8,-1.2 -9.6,-2.1 -14.3,-3.4c-4.4,-1.2 -7.9,-3.9 -10.2,-7.9c-1.1,-1.9 -1.7,-3.9 -1.9,-6.1c-0.3,-3.2 -0.4,-6.3 0.7,-9.4c2,-5.7 6.1,-9.4 11.5,-11.7c3.4,-1.4 6.9,-2 10.6,-2.2c5.1,-0.3 10,0.2 14.7,2c7,2.8 11.5,7.9 12.8,15.4c0.2,1.3 0.4,2.6 0.6,3.9l-15.6,0l0,0.1z" fill="#7E767E" id="svg_5"/>
   <polygon class="st1" points="285.6480975151062,51.598607778549194 285.6480975151062,39.29858946800232 298.24813413619995,39.29858946800232 298.24813413619995,17.698598623275757 314.44808530807495,17.698598623275757 314.44808530807495,39.198583364486694 330.54806089401245,39.198583364486694 330.54806089401245,51.398595571517944 314.54806089401245,51.398595571517944 314.54806089401245,91.89858794212341 330.44808530807495,91.89858794212341 330.44808530807495,104.09860014915466 298.34810972213745,104.09860014915466 298.34810972213745,51.598607778549194 " fill="#7E767E" id="svg_6"/>
   <polygon class="st1" points="506.84810972213745,51.598607778549194 506.84810972213745,39.29858946800232 519.5480608940125,39.29858946800232 519.5480608940125,17.698598623275757 535.64803647995,17.698598623275757 535.64803647995,39.198583364486694 551.7481341362,39.198583364486694 551.7481341362,51.49860167503357 535.8481097221375,51.49860167503357 535.8481097221375,91.89858794212341 551.7481341362,91.89858794212341 551.7481341362,104.09860014915466 519.6480975151062,104.09860014915466 519.6480975151062,51.598607778549194 " fill="#7E767E" id="svg_7"/>
   <rect x="478.74808" y="39.29859" class="st1" width="15.7" height="64.8" fill="#7E767E" id="svg_8"/>
   <rect x="478.24808" y="17.59859" class="st1" width="16.4" height="13.8" fill="#7E767E" id="svg_9"/>
   <path class="st1" d="m207.14808,50.79859c-0.5,-4.3 -1.3,-8.5 -2.7,-12.5c-2,-5.5 -5,-10.3 -9.7,-13.9c-6.1,-4.6 -13.3,-6.6 -20.9,-6.8c-11,-0.3 -22,-0.1 -33,-0.1c-0.4,0 -0.8,0 -1.2,0.1l0,86.6l1.4,0c9.7,0 19.3,0 29,0c4.4,0 8.7,-0.4 12.9,-1.5c5.6,-1.4 10.5,-3.9 14.6,-8.1c3.5,-3.5 5.7,-7.8 7.2,-12.4c1.6,-4.8 2.5,-9.9 2.6,-14.9c0.3,-5.5 0.4,-11 -0.2,-16.5m-16.7,22.7c0,3.2 -0.6,6.3 -2.4,9.1c-1.7,2.8 -4.2,4.6 -7.1,5.7c-3.7,1.5 -7.6,1.9 -11.6,1.9c-4.3,0 -8.6,0 -13,0l0,-58.7c5.3,0 10.4,-0.2 15.6,0.1c3.7,0.1 7.4,0.9 10.7,2.6c4.1,2.2 6.6,5.5 7.3,10.1c0.3,1.8 0.5,3.7 0.5,5.5c0,7.9 0.1,15.8 0,23.7" fill="#7E767E" id="svg_10"/>
   <path class="st1" d="m395.64808,91.99859l0,-1.6c0,-10.2 0,-20.4 0,-30.5c0,-2.2 -0.2,-4.4 -0.7,-6.5c-1.2,-5.3 -4.2,-9.4 -9,-12.2c-4.7,-2.7 -9.9,-3.5 -15.1,-3.6c-3.1,0 -6.2,0.4 -9.3,1c-5.5,1.1 -10.3,3.4 -14,7.8c-3.1,3.7 -4.5,8 -4.7,12.8l16,0c0.1,-4.2 2.2,-6.9 6,-8.3c2.7,-1 5.4,-1.1 8.2,-0.5c2.9,0.6 5.1,2.1 6.2,5c1,2.6 0.8,5.3 0.8,8c0,0.2 -0.6,0.6 -1,0.7c-1.3,0.2 -2.6,0.2 -3.9,0.3c-4.1,0.4 -8.3,0.7 -12.4,1.2c-2.7,0.3 -5.4,0.7 -8,1.5c-5.4,1.7 -9.6,4.9 -12.1,10c-2,4 -2.4,8.2 -1.6,12.6c1.4,7.3 5.5,12.2 12.4,14.8c4.1,1.6 8.3,1.7 12.6,1c4.2,-0.7 7.8,-2.4 10.8,-5.4c1.5,-1.5 2.5,-3.4 3.8,-5.1c0.2,-0.3 0.5,-0.4 1,-0.9l0,10.1l23.3,0l0,-12.2l-9.3,0zm-19.1,-3.1c-2.2,2.8 -5.2,4.2 -8.7,4.5c-2.7,0.2 -5.3,-0.1 -7.7,-1.3c-1.9,-1 -2.9,-2.5 -3,-4.5c-0.1,-2.2 0.1,-4.4 0.2,-6.7c0.1,-2 1.7,-3 3.6,-3.2c4,-0.3 8.1,-0.6 12.1,-1c2.3,-0.2 4.5,-0.5 6.9,-0.7c0.2,4.8 -0.4,9.2 -3.4,12.9" fill="#7E767E" id="svg_11"/>
   <path class="st1" d="m273.24808,91.89859l0,-1.5c0,-10 0,-20 0,-30.1c0,-2 -0.1,-4 -0.5,-5.9c-1.6,-8.2 -6.8,-13.1 -14.3,-15.4c-4.2,-1.3 -8.5,-1.8 -12.9,-1.2c-2.5,0.3 -5.1,0.5 -7.6,1c-4.4,0.9 -8.4,3 -11.6,6.1c-2.1,2 -3.7,4.5 -4.6,7.3c-0.7,2.2 -1.4,4.5 -1.1,6.9l15.8,0c0.2,-3.2 1.3,-5.7 4.1,-7.4c3.2,-1.9 6.7,-2.1 10.2,-1.4c3.6,0.8 6,3 6.6,6.7c0.4,2.2 0.3,4.5 0.4,6.8c-2.2,0.2 -4.1,0.4 -6,0.6c-3.7,0.3 -7.3,0.8 -11,0.9c-3.6,0.2 -6.9,0.9 -10.2,2.2c-4.7,1.9 -8.2,5.1 -10.4,9.7c-1.9,3.9 -2.2,8.1 -1.5,12.4c1.2,7.7 7,13.6 14.5,15.4c2.9,0.7 5.7,0.9 8.7,0.5c3.3,-0.4 6.4,-1.3 9.3,-3c3.1,-1.9 5.3,-4.6 7,-7.7c0.2,-0.3 0.5,-0.5 0.9,-1l0,10.1l23.2,0l0,-12.2l-9,0l0,0.2zm-20.5,-1.5c-2,1.9 -4.5,2.8 -7.3,3c-2.6,0.1 -5.1,-0.1 -7.5,-1.2c-2.2,-1 -3.1,-2.8 -3.2,-5.1c0,-2.1 0.1,-4.3 0.2,-6.4c0.1,-1.6 1.8,-2.8 3.8,-2.9c3.3,-0.2 6.7,-0.6 10,-0.9c2,-0.2 4.1,-0.3 6.2,-0.5c0.8,-0.1 1.6,-0.1 2.6,-0.2c0.3,5.4 -0.6,10.4 -4.8,14.2" fill="#7E767E" id="svg_12"/>
   <path class="st1" d="m578.64808,76.69859c11,0 21.9,0 32.9,0l7.5,0c0,-2.9 0.1,-5.6 0,-8.4c-0.2,-2.9 -0.3,-5.9 -1,-8.7c-1.5,-6.5 -4.7,-12 -10,-16.2c-5.2,-4.1 -11.3,-5.8 -17.8,-5.9c-2.1,0 -4.3,0.3 -6.3,0.7c-8.6,1.5 -14.7,6.5 -18.9,14c-3.1,5.6 -4.1,11.7 -4.4,17.9c-0.1,1.5 0.2,3.1 0.2,4.6c0,3.9 0.8,7.6 1.9,11.2c1.7,5.5 4.7,10.2 9.2,13.8c4.7,3.9 10.3,5.6 16.4,5.9c3.5,0.2 7,-0.2 10.4,-0.9c5,-1.1 9.4,-3.4 13,-7c2.9,-3 5,-6.6 6.1,-10.6c0.4,-1.4 0.6,-2.8 0.9,-4.3c-5.2,0 -10.1,0 -14.9,0c-0.9,0 -1.1,0.3 -1.3,1.2c-0.8,3.7 -2.8,6.5 -6.4,8c-3.8,1.6 -7.7,1.6 -11.5,0.1c-2.9,-1.1 -5,-3.1 -6.3,-6.1c-1.1,-2.6 -1,-5.2 -1.1,-7.9c-0.2,-1 0.2,-1.4 1.4,-1.4m-1.5,-13.3c0,-3.5 0.8,-6.7 3.2,-9.3c1.8,-2 4.1,-3.2 6.7,-3.7c3.8,-0.8 7.5,-0.2 10.7,2.1c3.1,2.2 4.9,5.3 5,9.2c0,0.9 0,1.8 0,2.9l-16.7,0c-2.6,0 -5.1,0 -7.7,0c-0.9,-0.1 -1.2,-0.3 -1.2,-1.2" fill="#7E767E" id="svg_13"/>
  </g>
 </g>

</svg>