<svg width="600" height="269" xmlns="http://www.w3.org/2000/svg" version="1.1">

 <g>
  <title>Layer 1</title>
  <path id="svg_1" fill="#000000" d="m288,38c102.41619,0 102.41619,0 119,16.4375c10.63647,11.36204 15.36531,24.31598 15.15234,39.95703c-0.7254,12.4062 -5.19064,22.22138 -13.15234,31.60547c-0.80437,1.01063 -1.60875,2.02125 -2.4375,3.0625c-0.51562,0.63938 -1.03125,1.27875 -1.5625,1.9375c1.08668,0.36352 1.08668,0.36352 2.19531,0.73438c10.22827,4.61554 15.93069,15.28132 19.80469,25.26562c4.20763,14.26445 2.53128,29.70866 -4.25,42.875c-7.58249,13.04379 -17.75473,20.64859 -31.75,26.125c-33.58545,7.19688 -68.65211,3 -103,3c0,-63.03 0,-126.06 0,-191zm38,36c0,13.53 0,27.06 0,41c9.86906,0.12375 9.86906,0.12375 19.9375,0.25c3.08783,0.05462 3.08783,0.05462 6.23804,0.11035c1.65892,0.0117 3.31786,0.02189 4.9768,0.03028c0.83922,0.02046 1.67844,0.04092 2.54309,0.06201c6.97008,0.00405 13.28396,-1.60167 18.46082,-6.4878c0.66516,-1.00353 0.66516,-1.00353 1.34375,-2.02734c0.46406,-0.6716 0.92812,-1.3432 1.40625,-2.03516c2.86808,-4.9884 2.63582,-10.32134 2.09375,-15.90234c-1.74235,-5.92399 -4.96238,-9.57442 -10,-13c-5.23135,-2.25633 -9.96532,-2.26224 -15.55469,-2.19531c-1.19991,0.00302 -1.19991,0.00302 -2.42407,0.0061c-2.96547,0.0104 -5.93086,0.03832 -8.89624,0.06421c-6.64125,0.04125 -13.2825,0.0825 -20.125,0.125zm0,75c0,14.52 0,29.04 0,44c6.54744,0.06906 13.0936,0.12874 19.64111,0.16479c2.22498,0.01505 4.44993,0.03548 6.67481,0.06153c3.20727,0.03659 6.41414,0.05345 9.62158,0.06665c0.98678,0.01548 1.97355,0.03097 2.99023,0.04692c6.86205,0.00165 12.87652,-0.62851 18.31446,-5.24223c0.53883,-0.67161 1.07765,-1.34321 1.63281,-2.03516c0.5543,-0.66902 1.10859,-1.33805 1.67969,-2.02734c3.50837,-4.94017 4.91365,-10.06545 4.19922,-16.1211c-1.62075,-7.487 -5.55093,-12.44792 -11.75391,-16.91406c-5.54847,-2.48836 -10.90808,-2.257 -16.86719,-2.19531c-1.03472,0.00283 -2.06945,0.00566 -3.13553,0.00857c-3.29088,0.01116 -6.58148,0.03626 -9.87228,0.06174c-2.23698,0.01004 -4.47395,0.01916 -6.71094,0.02734c-5.47154,0.0203 -10.94249,0.05946 -16.41406,0.09766z"/>
  <path id="svg_2" fill="#000000" d="m449,38c12.54,0 25.08,0 38,0c0.01458,3.88048 0.02917,7.76096 0.04419,11.75903c0.0504,12.84032 0.11686,25.68052 0.19152,38.52072c0.04487,7.7828 0.08431,15.56554 0.11073,23.34842c0.02305,6.78761 0.05653,13.57508 0.10226,20.36257c0.02384,3.59028 0.04263,7.18041 0.04891,10.77076c0.00724,4.01891 0.03776,8.03734 0.07002,12.05613c-0.00144,1.17604 -0.00287,2.35209 -0.00435,3.56378c0.12313,10.89049 1.66483,20.54042 9.43672,28.61859c8.50896,7.32167 20.26666,7.93189 31.02197,7.21143c8.45455,-0.90369 16.42364,-3.5717 21.97803,-10.21143c6.43748,-8.47465 6.30021,-18.74644 6.31885,-28.95532c0.01004,-1.26928 0.02009,-2.53856 0.03044,-3.8463c0.02712,-3.45389 0.04239,-6.90774 0.05543,-10.36171c0.01571,-3.61951 0.04247,-7.23893 0.06803,-10.85838c0.04665,-6.84204 0.08346,-13.68409 0.11667,-20.5262c0.03832,-7.79455 0.08771,-15.58901 0.13798,-23.38349c0.10312,-16.02282 0.19098,-32.04566 0.2726,-48.0686c12.54,0 25.08,0 38,0c0.09059,17.84703 0.16415,35.69386 0.20725,53.54105c0.02055,8.28832 0.04853,16.57649 0.09451,24.86471c0.04009,7.23108 0.06573,14.46205 0.07459,21.69324c0.00518,3.8225 0.01719,7.64469 0.04657,11.46709c0.17432,23.6121 0.01713,44.15689 -17.22761,62.22688c-0.72445,0.72832 -1.4489,1.45664 -2.19531,2.20703c-0.7773,0.82951 -0.7773,0.82951 -1.57031,1.67578c-11.21763,10.89461 -30.15341,16.74057 -45.42969,17.32422c-1.04414,0.03996 -2.08828,0.07992 -3.16406,0.12109c-21.60648,0.40722 -42.53408,-4.72115 -58.62207,-19.74292c-12.15178,-11.92978 -18.15074,-28.06102 -18.45438,-44.90202c-0.00573,-2.4337 -0.00064,-4.86744 0.01346,-7.3011c0.00056,-1.35136 0.00024,-2.70272 -0.00089,-4.05408c-0.00056,-3.63358 0.01111,-7.26703 0.02515,-10.90059c0.01259,-3.81029 0.01369,-7.62059 0.01605,-11.43091c0.0062,-7.19972 0.02258,-14.39939 0.0427,-21.59909c0.02243,-8.20324 0.03337,-16.40648 0.04339,-24.60973c0.02085,-16.86026 0.0575,-33.72043 0.10065,-50.58065z"/>
  <path id="svg_3" fill="#000000" d="m244.125,53.125c7.49465,6.98066 13.06354,15.38817 16.875,24.875c-0.76143,0.43868 -1.52287,0.87737 -2.30737,1.32935c-2.84233,1.63783 -5.68443,3.27605 -8.52637,4.91455c-1.2268,0.70719 -2.45368,1.41422 -3.68066,2.12109c-1.77018,1.01985 -3.54003,2.04027 -5.30982,3.06079c-1.06307,0.61271 -2.12615,1.22542 -3.22143,1.85669c-1.91649,1.11416 -3.8042,2.27997 -5.65284,3.50342c-0.7595,0.40066 -1.519,0.80131 -2.30151,1.21411c-3.73127,-1.24376 -3.85346,-2.16964 -5.625,-5.5625c-4.75116,-8.15985 -11.04777,-13.9413 -20.14844,-16.8125c-8.87849,-1.7198 -19.35544,-2.3334 -27.49219,2.09766c-3.76791,2.77502 -6.23548,5.78066 -7.73437,10.27734c-0.61375,5.19168 -0.49342,9.88163 2.50391,14.38281c8.55305,9.24534 23.888,12.79759 35.49414,16.56139c42.23661,13.70061 42.23661,13.70061 53.89258,32.86439c6.63921,13.1148 6.87947,29.1473 3.14062,43.16797c-4.92802,14.44806 -15.32138,25.62437 -28.875,32.45703c-22.77502,10.09893 -50.23869,10.41015 -73.59375,1.87891c-17.70236,-6.9362 -30.84687,-19.78348 -38.78125,-36.94922c-0.78125,-2.36328 -0.78125,-2.36328 -0.78125,-6.36328c1.14215,-0.65803 1.14215,-0.65803 2.30737,-1.32935c2.84233,-1.63783 5.68443,-3.27605 8.52637,-4.91455c1.2268,-0.70719 2.45368,-1.41422 3.68066,-2.12109c1.77018,-1.01985 3.54003,-2.04027 5.30982,-3.06079c1.59461,-0.91906 1.59461,-0.91906 3.22143,-1.85669c1.92247,-1.11764 3.82893,-2.26344 5.71534,-3.44092c2.23901,-1.27661 2.23901,-1.27661 4.23901,-1.27661c0.32871,0.76184 0.65742,1.52367 0.99609,2.30859c5.01282,10.88149 10.99261,17.98798 22.13282,22.71875c6.44054,2.1819 12.285,3.36185 19.05859,3.34766c0.73178,-0.00016 1.46357,-0.00032 2.21753,-0.00049c6.944,-0.14358 13.15877,-1.76189 19.59497,-4.37451c0.73605,-0.29133 1.47211,-0.58266 2.23047,-0.88281c3.48398,-2.1996 4.18523,-6.03596 5.08203,-9.86719c0.94545,-5.18475 0.53292,-8.77863 -2.3125,-13.25c-7.94432,-10.0888 -23.61661,-12.86118 -35.25,-16.375c-15.82098,-4.78647 -30.98011,-9.75513 -43.75,-20.625c-0.66258,-0.55172 -1.32516,-1.10344 -2.00781,-1.67187c-9.87091,-8.97356 -12.98541,-20.95672 -14.23828,-33.86329c-0.43296,-14.03277 3.94926,-27.90328 13.24609,-38.46484c0.55043,-0.65484 1.10086,-1.30969 1.66797,-1.98438c26.09252,-28.70733 73.13969,-22.90801 100.45703,0.10938z"/>
  <path id="svg_4" fill="#000000" d="m4,38c12.54,0 25.08,0 38,0c0,50.82 0,101.64 0,154c24.09,0 48.18,0 73,0c0,12.21 0,24.42 0,37c-36.63,0 -73.26,0 -111,0c0,-63.03 0,-126.06 0,-191z"/>
 </g>
</svg>