<?xml version="1.0" encoding="UTF-8"?>
<svg version="1.1" xmlns="http://www.w3.org/2000/svg" width="750" height="269">
<path d="M0 0 C102.41618881 0 102.41618881 0 119 16.4375 C129.63647321 27.79953815 134.36530812 40.75348163 134.15234375 56.39453125 C133.4269439 68.80072864 128.96169709 78.61591155 121 88 C120.195625 89.010625 119.39125 90.02125 118.5625 91.0625 C118.046875 91.701875 117.53125 92.34125 117 93 C118.08667969 93.36351562 118.08667969 93.36351562 119.1953125 93.734375 C129.4235784 98.3499156 135.1260029 109.01570428 139 119 C143.20763476 133.26444788 141.53127504 148.70865925 134.75 161.875 C127.16750622 174.91878888 116.99527385 182.52358849 103 188 C69.41454696 195.19688279 34.34789335 191 0 191 C0 127.97 0 64.94 0 0 Z M38 36 C38 49.53 38 63.06 38 77 C47.8690625 77.12375 47.8690625 77.12375 57.9375 77.25 C61.02532837 77.30462402 61.02532837 77.30462402 64.17553711 77.36035156 C65.8344621 77.37205028 67.49339871 77.38223929 69.15234375 77.390625 C69.99156372 77.41108887 70.83078369 77.43155273 71.69543457 77.45263672 C78.66551282 77.45668968 84.97939038 75.85097394 90.15625 70.96484375 C90.82140625 69.96130859 90.82140625 69.96130859 91.5 68.9375 C91.9640625 68.26589844 92.428125 67.59429687 92.90625 66.90234375 C95.77432758 61.91393739 95.54206722 56.58100195 95 51 C93.25764916 45.07600715 90.03762353 41.425584 85 38 C79.7686529 35.74366818 75.0346802 35.73776474 69.4453125 35.8046875 C68.24539673 35.80770874 68.24539673 35.80770874 67.02124023 35.81079102 C64.05576783 35.82119224 61.09037767 35.84911451 58.125 35.875 C51.48375 35.91625 44.8425 35.9575 38 36 Z M38 111 C38 125.52 38 140.04 38 155 C44.547438 155.06905501 51.09360063 155.12873504 57.64111328 155.16479492 C59.86609185 155.17983512 62.09104101 155.20027246 64.31591797 155.22631836 C67.52318606 155.26291135 70.73006045 155.2797745 73.9375 155.29296875 C74.92427734 155.30845261 75.91105469 155.32393646 76.92773438 155.33988953 C83.78978152 155.34154301 89.80424719 154.71137913 95.2421875 150.09765625 C95.78101563 149.42605469 96.31984375 148.75445312 96.875 148.0625 C97.42929687 147.39347656 97.98359375 146.72445312 98.5546875 146.03515625 C102.0630557 141.09499454 103.46833599 135.96970508 102.75390625 129.9140625 C101.13315591 122.42705652 97.20297769 117.46614394 91 113 C85.4515324 110.51164203 80.09191858 110.74299529 74.1328125 110.8046875 C73.09808807 110.8075174 72.06336365 110.81034729 70.99728394 110.81326294 C67.70640286 110.82441952 64.41579822 110.84951603 61.125 110.875 C58.88802478 110.88503563 56.65104527 110.89416047 54.4140625 110.90234375 C48.94251726 110.9226388 43.47156651 110.96179667 38 111 Z " fill="#000000" transform="translate(398,37)"/>
<path d="M0 0 C12.54 0 25.08 0 38 0 C38.01458252 3.88048096 38.02916504 7.76096191 38.04418945 11.7590332 C38.09459141 24.59935433 38.16104792 37.43955063 38.23571491 50.27975178 C38.28058268 58.06254531 38.32001786 65.845294 38.34643555 73.62817383 C38.36948899 80.41578219 38.40296824 87.20324758 38.44870156 93.99074239 C38.47253534 97.58101591 38.49132828 101.17114871 38.49761391 104.7614994 C38.50484594 108.78041172 38.53536557 112.79883752 38.56762695 116.81762695 C38.56619186 117.99367493 38.56475677 119.1697229 38.5632782 120.38140869 C38.68640837 131.27190176 40.22810687 140.92182537 48 149 C56.50896452 156.32166715 68.26665773 156.93188985 79.02197266 156.21142578 C87.47651651 155.30774336 95.44561254 152.63972753 101 146 C107.43747719 137.52534648 107.30020975 127.25355703 107.31884766 117.04467773 C107.32889328 115.77539932 107.3389389 114.50612091 107.34928894 113.19837952 C107.37640759 109.74448974 107.39168398 106.29064033 107.40471697 102.83667254 C107.4204276 99.21716394 107.4471922 95.59773681 107.4727478 91.97828674 C107.51939596 85.13625243 107.55620729 78.29420256 107.58942068 71.45209128 C107.62774119 63.65754258 107.67712509 55.86307601 107.72740483 48.06859672 C107.83051685 32.0457847 107.91838404 16.02293812 108 0 C120.54 0 133.08 0 146 0 C146.09058698 17.84702862 146.16414782 35.69385845 146.20724869 53.54105377 C146.22780054 61.82937399 146.25577842 70.11754033 146.30175781 78.40576172 C146.34185325 85.6368434 146.3674863 92.86781354 146.37635398 100.09900331 C146.38153068 103.92150478 146.39353998 107.7436874 146.42292023 111.56608582 C146.59724037 135.17818727 146.44005289 155.722985 129.1953125 173.79296875 C128.47085938 174.52128906 127.74640625 175.24960938 127 176 C126.22269531 176.82951172 126.22269531 176.82951172 125.4296875 177.67578125 C114.21205644 188.57039152 95.27628197 194.41635468 80 195 C78.95585938 195.03996094 77.91171875 195.07992187 76.8359375 195.12109375 C55.22945564 195.52831126 34.3018633 190.39994388 18.21386719 175.37817383 C6.06209176 163.4483943 0.06312816 147.31714513 -0.24050903 130.47615051 C-0.24623834 128.04245256 -0.2411461 125.60871271 -0.22705078 123.17504883 C-0.22648524 121.82368986 -0.22680601 120.47233029 -0.22793579 119.12097168 C-0.22850473 115.48738623 -0.21682556 111.85393544 -0.20278788 108.22038102 C-0.19020326 104.41008597 -0.18910397 100.59978712 -0.18673706 96.78947449 C-0.18054485 89.58974521 -0.16416492 82.39007737 -0.14403808 75.19037503 C-0.12160838 66.98714079 -0.11066794 58.78390347 -0.10064721 50.58064616 C-0.07979643 33.72038924 -0.04314877 16.86021684 0 0 Z " fill="#000000" transform="translate(559,37)"/>
<path d="M0 0 C7.49464579 6.98065891 13.06354033 15.38816935 16.875 24.875 C16.11356689 25.31368408 15.35213379 25.75236816 14.56762695 26.2043457 C11.72530036 27.84217549 8.88320408 29.48040352 6.04125977 31.11889648 C4.81446294 31.82608596 3.58757625 32.53311957 2.3605957 33.23999023 C0.59041709 34.25983736 -1.17943069 35.28025657 -2.94921875 36.30078125 C-4.01229248 36.91348877 -5.07536621 37.52619629 -6.1706543 38.1574707 C-8.08713943 39.27163258 -9.97485192 40.43744158 -11.82348633 41.66088867 C-12.58298584 42.06154541 -13.34248535 42.46220215 -14.125 42.875 C-17.85627173 41.63124276 -17.97845979 40.7053621 -19.75 37.3125 C-24.50115522 29.15265357 -30.79776515 23.37119804 -39.8984375 20.5 C-48.77692969 18.78019522 -59.25387985 18.1665993 -67.390625 22.59765625 C-71.15854376 25.3726775 -73.62610742 28.37832225 -75.125 32.875 C-75.7387452 38.06668068 -75.61842461 42.75663052 -72.62109375 47.2578125 C-64.06804228 56.50314751 -48.73309414 60.05539557 -37.12695312 63.81919861 C5.10965696 77.519811 5.10965696 77.519811 16.765625 96.68359375 C23.40484391 109.79838884 23.64509613 125.83088951 19.90625 139.8515625 C14.97823071 154.29961906 4.58486973 165.47593106 -8.96875 172.30859375 C-31.74377006 182.40751712 -59.20744459 182.7187435 -82.5625 174.1875 C-100.26485676 167.25129766 -113.40936577 154.40401637 -121.34375 137.23828125 C-122.125 134.875 -122.125 134.875 -122.125 130.875 C-120.98285034 130.21697388 -120.98285034 130.21697388 -119.81762695 129.5456543 C-116.97530036 127.90782451 -114.13320408 126.26959648 -111.29125977 124.63110352 C-110.06446294 123.92391404 -108.83757625 123.21688043 -107.6105957 122.51000977 C-105.84041709 121.49016264 -104.07056931 120.46974343 -102.30078125 119.44921875 C-100.70617065 118.53015747 -100.70617065 118.53015747 -99.0793457 117.5925293 C-97.15687956 116.47489032 -95.25042012 115.32909325 -93.36401367 114.15161133 C-91.125 112.875 -91.125 112.875 -89.125 112.875 C-88.79628906 113.63683594 -88.46757812 114.39867187 -88.12890625 115.18359375 C-83.11608553 126.06508263 -77.13630025 133.17157113 -65.99609375 137.90234375 C-59.55554611 140.08424356 -53.71108973 141.26418553 -46.9375 141.25 C-46.20571533 141.24983887 -45.47393066 141.24967773 -44.7199707 141.24951172 C-37.77597078 141.10593135 -31.56120044 139.48762062 -25.125 136.875 C-24.38894531 136.58367187 -23.65289062 136.29234375 -22.89453125 135.9921875 C-19.41054969 133.79258766 -18.70929955 129.95622527 -17.8125 126.125 C-16.86704595 120.940252 -17.27958402 117.34636796 -20.125 112.875 C-28.0693228 102.78619742 -43.74161409 100.0138181 -55.375 96.5 C-71.19597952 91.71352588 -86.35510914 86.7448725 -99.125 75.875 C-99.78757813 75.32328125 -100.45015625 74.7715625 -101.1328125 74.203125 C-111.0037243 65.22956882 -114.11822226 53.24640877 -115.37109375 40.33984375 C-115.80404673 26.30707376 -111.42183462 12.43655914 -102.125 1.875 C-101.57457031 1.22015625 -101.02414063 0.5653125 -100.45703125 -0.109375 C-74.36450765 -28.8167144 -27.31734429 -23.01739195 0 0 Z " fill="#000000" transform="translate(354.125,52.125)"/>
<path d="M0 0 C12.54 0 25.08 0 38 0 C38 50.82 38 101.64 38 154 C62.09 154 86.18 154 111 154 C111 166.21 111 178.42 111 191 C74.37 191 37.74 191 0 191 C0 127.97 0 64.94 0 0 Z " fill="#000000" transform="translate(114,37)"/>
<path d="M0 0 C3.46738075 0.74749694 5.06634693 2.72184597 7.15625 5.46484375 C9.00092846 9.15420067 8.50634552 13.42919717 8.15625 17.46484375 C6.84736293 20.70261704 5.59831922 22.08592728 2.96875 24.33984375 C-0.8800459 25.87936211 -3.88928376 25.57935929 -7.84375 24.46484375 C-10.34375 22.90234375 -10.34375 22.90234375 -11.84375 21.46484375 C-12.83375 22.12484375 -13.82375 22.78484375 -14.84375 23.46484375 C-19.46643633 24.12853494 -23.52379854 24.39846795 -27.40625 21.65234375 C-30.11330146 17.53291762 -30.52437751 13.27461147 -29.84375 8.46484375 C-26.84375 2.96484375 -26.84375 2.96484375 -23.84375 1.46484375 C-16.62044903 0.99882433 -16.62044903 0.99882433 -13.34375 2.96484375 C-12.84875 3.45984375 -12.35375 3.95484375 -11.84375 4.46484375 C-11.204375 3.80484375 -10.565 3.14484375 -9.90625 2.46484375 C-6.31597165 0.12017218 -4.20301176 -0.17512549 0 0 Z M-6.53125 6.52734375 C-9.11839143 9.3216927 -9.11839143 9.3216927 -9.40625 13.02734375 C-9.09440469 16.47515175 -9.09440469 16.47515175 -7.15625 18.90234375 C-4.39369945 20.76893196 -3.11139255 21.05134369 0.15625 20.46484375 C2.74133686 18.8030022 3.12788627 17.56520773 3.96875 14.58984375 C4.17334795 11.17987794 3.80533366 9.43319434 2.15625 6.46484375 C-1.74928522 3.8611536 -2.7845077 3.65193687 -6.53125 6.52734375 Z M-24.84375 8.46484375 C-26.01352494 10.81356906 -26.01352494 10.81356906 -25.84375 13.46484375 C-24.85094496 16.28621556 -24.85094496 16.28621556 -22.84375 18.46484375 C-20.45023505 19.62694594 -20.45023505 19.62694594 -17.84375 19.46484375 C-15.40172882 18.61267046 -15.40172882 18.61267046 -13.84375 16.46484375 C-13.37461911 12.0862888 -13.37431471 10.16899668 -15.84375 6.46484375 C-19.60239307 4.65032641 -21.74474926 5.95214045 -24.84375 8.46484375 Z " fill="#000000" transform="translate(66.84375,91.53515625)"/>
<path d="M0 0 C2.86942113 2.26533247 3.83907612 3.51722837 5 7 C5.72382441 13.7873371 5.29277369 18.57754903 1 24 C-2.25 25.4375 -2.25 25.4375 -5 26 C-5.8125 24.3125 -5.8125 24.3125 -6 22 C-5.21625 21.236875 -4.4325 20.47375 -3.625 19.6875 C-0.38706896 16.37247536 0 14.58698041 0 10 C-0.86646083 6.99844249 -0.86646083 6.99844249 -3 5 C-6.12635209 4.58253392 -6.12635209 4.58253392 -9 5 C-9.17015625 5.556875 -9.3403125 6.11375 -9.515625 6.6875 C-13.62376238 19.62376238 -13.62376238 19.62376238 -18 24 C-22.5370992 24.76658258 -26.04453215 24.57726182 -30 22.1875 C-33.09290238 18.80463803 -33.34774643 15.63794555 -33.28125 11.1328125 C-32.77791936 7.31588851 -31.29252204 5.09800275 -29 2 C-26.25 0.5625 -26.25 0.5625 -24 0 C-23.25 2.25 -23.25 2.25 -23 5 C-24.875 7.0625 -24.875 7.0625 -27 9 C-28.2001241 11.65741764 -28.04141616 12.82191049 -27.375 15.6875 C-26.19428973 18.26106375 -26.19428973 18.26106375 -23.375 18.8125 C-22.199375 18.9053125 -22.199375 18.9053125 -21 19 C-18.84898404 15.77347605 -17.41264318 12.55033373 -16.0625 8.9375 C-14.59230524 5.16661879 -13.33414893 2.4737234 -10 0 C-6.19426871 -1.2685771 -3.89430952 -0.88817586 0 0 Z " fill="#000000" transform="translate(70,177)"/>
<path d="M0 0 C4.38310294 2.33038278 8.40475773 5.01910489 12.43945312 7.90185547 C13.74805943 8.8227114 15.0967004 9.68631092 16.453125 10.53515625 C18.375 11.75 18.375 11.75 21 14 C21.4375 16.8125 21.4375 16.8125 21 19 C16.22390502 17.35821735 12.20617096 14.73453298 8 12 C7.9071875 13.5778125 7.9071875 13.5778125 7.8125 15.1875 C6.85862552 19.66337256 5.46953013 21.12282867 2 24 C-1.47182303 25.73591152 -5.20408964 25.46571673 -9 25 C-13.09964471 22.91290815 -15.28541564 21.23603195 -17 17 C-17.73651586 12.28972412 -17.42246633 8.82984458 -15.25 4.5625 C-11.0939882 -0.17073567 -6.15564519 -1.44327274 0 0 Z M-10.375 6.75 C-12.48227448 9.61038065 -12.48227448 9.61038065 -13 13 C-11.40485216 17.28611247 -11.40485216 17.28611247 -8 20 C-4.16385043 20.35519903 -1.85370366 20.54724594 1.4375 18.4375 C3.60396028 15.05782196 3.56288002 12.94016013 3 9 C1.58333333 6.41666667 1.58333333 6.41666667 -1 5 C-5.02059163 4.42562977 -7.06368326 4.3100824 -10.375 6.75 Z " fill="#000000" transform="translate(54,64)"/>
<path d="M0 0 C1.32 0 2.64 0 4 0 C4 5.61 4 11.22 4 17 C7.96 17 11.92 17 16 17 C16 12.05 16 7.1 16 2 C17.32 2 18.64 2 20 2 C20 6.95 20 11.9 20 17 C23.96 17 27.92 17 32 17 C32 11.39 32 5.78 32 0 C33.65 0 35.3 0 37 0 C37 7.26 37 14.52 37 22 C24.79 22 12.58 22 0 22 C0 14.74 0 7.48 0 0 Z " fill="#000000" transform="translate(38,206)"/>
<path d="M0 0 C1.65 0 3.3 0 5 0 C5 7.92 5 15.84 5 24 C-1 24 -1 24 -3.11816406 22.54711914 C-3.74432617 21.88317139 -4.37048828 21.21922363 -5.015625 20.53515625 C-5.70914063 19.81779297 -6.40265625 19.10042969 -7.1171875 18.36132812 C-7.82101563 17.60271484 -8.52484375 16.84410156 -9.25 16.0625 C-10.67004408 14.57247167 -12.09183405 13.08410467 -13.515625 11.59765625 C-14.44810059 10.60004272 -14.44810059 10.60004272 -15.39941406 9.58227539 C-17.62453793 7.38260672 -18.79605857 7.02603508 -21.9375 6.625 C-25.1189171 6.69547075 -25.1189171 6.69547075 -27.0625 9.0625 C-28.35383844 12.1259261 -28.35383844 12.1259261 -26.8125 15.6875 C-25.21872064 18.96854519 -25.21872064 18.96854519 -23 21 C-23.66 21.99 -24.32 22.98 -25 24 C-28.05665662 23.09126425 -29.72305703 22.32469175 -31.8125 19.875 C-33.36591422 16.11410241 -33.5943277 13.01374732 -33 9 C-31.69275775 5.90389993 -30.38200098 4.33705968 -27.875 2.125 C-23.64808002 0.47098784 -20.30866785 0.58542898 -16 2 C-12.96668657 3.99604359 -10.52243186 6.40097608 -8 9 C-6.98292969 9.99966797 -6.98292969 9.99966797 -5.9453125 11.01953125 C-4.27933803 12.66208841 -2.63716554 14.32872684 -1 16 C-0.67 10.72 -0.34 5.44 0 0 Z " fill="#000000" transform="translate(70,37)"/>
<path d="M0 0 C1.32 0 2.64 0 4 0 C4 3.63 4 7.26 4 11 C14.89 11 25.78 11 37 11 C37 12.65 37 14.3 37 16 C26.11 16 15.22 16 4 16 C4 19.63 4 23.26 4 27 C2.68 27 1.36 27 0 27 C0 18.09 0 9.18 0 0 Z " fill="#000000" transform="translate(38,149)"/>
<path d="M0 0 C12.21 0 24.42 0 37 0 C37 1.32 37 2.64 37 4 C26.44 4 15.88 4 5 4 C5.66 6.97 6.32 9.94 7 13 C4.625 12.8125 4.625 12.8125 2 12 C-0.56495082 7.84722249 0 5.19261812 0 0 Z " fill="#000000" transform="translate(38,122)"/>
</svg>
