<svg version="1.1" id="Layer_1" xmlns="http://www.w3.org/2000/svg" xmlns:xlink="http://www.w3.org/1999/xlink" x="0px" y="0px"
	 width="100%" viewBox="0 0 776 584" enable-background="new 0 0 776 584" xml:space="preserve">
<path fill="#FEFEFE" opacity="1.000000" stroke="none" 
	d="
M453.000000,585.000000 
	C302.000031,585.000000 151.500061,585.000000 1.000061,585.000000 
	C1.000040,390.333405 1.000040,195.666794 1.000020,1.000139 
	C259.666565,1.000093 518.333130,1.000093 776.999756,1.000046 
	C776.999878,195.666519 776.999878,390.333038 776.999939,584.999756 
	C669.166687,585.000000 561.333313,585.000000 453.000000,585.000000 
M462.947571,433.450653 
	C463.315643,426.464172 463.708466,419.478882 464.045349,412.490906 
	C464.444855,404.204254 468.931824,399.400543 476.764313,397.387329 
	C492.862000,393.249603 508.866730,388.699188 525.075562,385.056427 
	C551.679077,379.077484 578.395691,373.594299 605.102783,368.087158 
	C617.650330,365.499817 625.982422,358.721283 629.552368,346.120331 
	C632.811523,334.616302 636.720886,323.297516 640.051819,311.812408 
	C643.164734,301.078827 646.580627,298.000214 657.879456,297.220184 
	C665.690002,296.681000 673.532654,296.574860 681.334167,295.943512 
	C698.427795,294.560181 715.534790,293.239624 732.575623,291.346680 
	C741.588440,290.345490 742.118408,289.107941 742.124634,279.784546 
	C742.141663,254.284958 742.395569,228.782867 742.123108,203.286377 
	C741.686890,162.463531 740.804871,121.645432 740.376831,80.822548 
	C740.317871,75.203537 737.621521,73.619545 732.920288,73.140137 
	C726.627686,72.498466 720.343201,71.768486 714.063782,71.006645 
	C687.365845,67.767593 661.830933,61.288399 639.309998,45.558788 
	C629.091553,38.421795 617.393860,35.517429 604.847229,35.773445 
	C595.022095,35.973930 585.183716,35.787354 575.356262,35.556210 
	C554.033569,35.054695 532.715637,34.350880 511.392639,33.867172 
	C504.334747,33.707066 501.837555,35.873341 501.765656,42.797062 
	C501.568481,61.779240 501.697662,80.764809 501.697662,99.828644 
	C504.176544,100.706390 506.151184,101.809921 508.232697,102.075203 
	C519.427612,103.501945 530.699890,104.388733 541.847412,106.100685 
	C553.802124,107.936592 565.691650,110.276672 577.522278,112.805473 
	C583.129883,114.004112 586.977295,117.737984 587.721375,123.708908 
	C588.707214,131.620316 589.830078,139.553223 590.111694,147.504608 
	C590.516113,158.922394 590.214905,170.365173 590.214905,182.650269 
	C576.272217,181.374069 563.212219,180.171005 550.150330,178.988846 
	C547.137573,178.716217 545.675781,177.283615 544.930786,174.157715 
	C543.317139,167.386963 541.213623,160.727463 539.162415,154.068054 
	C537.202393,147.704712 532.896912,144.719925 526.108826,145.012573 
	C515.458862,145.471725 504.791962,145.557236 494.147614,146.101746 
	C492.785675,146.171432 491.060730,147.778275 490.279266,149.123428 
	C486.046509,156.409256 485.157532,164.512375 485.203979,172.742126 
	C485.335663,196.074661 485.527252,219.406891 485.728027,242.738968 
	C485.844971,256.328918 485.905396,255.953903 499.605194,257.126678 
	C510.444000,258.054535 521.191467,260.049011 531.749023,261.537323 
	C531.749023,273.696899 531.749023,284.808960 531.749023,297.186401 
	C503.166443,298.249512 474.786377,299.305115 446.188477,300.368805 
	C446.188477,293.760437 446.351318,287.961945 446.146149,282.176483 
	C445.904602,275.364685 445.549683,268.543335 444.860168,261.765106 
	C444.250763,255.774582 440.570374,252.461441 434.702026,251.037476 
	C408.291901,244.628891 381.755341,239.105881 354.402832,239.213821 
	C344.081146,239.254562 333.815338,239.974121 323.713989,244.126022 
	C323.713989,260.960144 323.531036,277.622253 323.768188,294.278412 
	C323.982666,309.344147 325.733948,310.953918 340.641846,312.086456 
	C349.038239,312.724365 357.430054,313.421539 366.175720,314.120117 
	C366.175720,336.388275 366.291565,358.202759 366.101562,380.014587 
	C366.048065,386.153778 365.035034,392.280670 364.586548,398.422302 
	C364.389862,401.116211 363.243103,402.748840 360.500549,403.060791 
	C349.801880,404.277771 339.101624,405.480713 328.315125,406.698700 
	C327.704498,404.379730 327.351135,402.947510 326.949982,401.528809 
	C324.013794,391.145020 321.309052,380.684906 317.948029,370.440186 
	C317.152740,368.016022 314.501373,365.568909 312.089966,364.415161 
	C301.092102,359.153107 289.069489,358.285278 277.153961,357.005402 
	C262.155975,355.394440 247.178162,353.595917 232.000107,351.856384 
	C232.000107,340.986450 232.159363,330.499756 231.906204,320.022980 
	C231.826920,316.741760 233.066132,315.403320 235.901337,314.296936 
	C244.876846,310.794434 253.723892,306.963715 262.682434,303.415985 
	C264.937439,302.522949 266.032104,301.536377 266.119202,298.836487 
	C266.783234,278.255859 262.726593,258.414642 256.711121,238.933167 
	C253.842346,229.642441 249.999741,227.285797 240.245255,226.997345 
	C228.592545,226.652740 216.863831,226.994141 205.310013,225.735229 
	C194.363068,224.542465 189.548584,221.474121 193.060165,209.382431 
	C198.285736,191.388687 205.031418,173.834061 211.288483,156.148560 
	C211.634216,155.171356 213.450134,154.059433 214.538132,154.102814 
	C223.644272,154.466034 232.740189,155.085190 241.882950,155.629822 
	C243.347702,166.230942 244.706284,176.063675 246.215942,186.989899 
	C263.577850,187.382828 280.700653,187.519669 297.795258,188.285629 
	C304.262573,188.575409 307.719879,185.276749 310.251434,180.384796 
	C311.668365,177.646667 312.836395,174.454193 312.954102,171.421341 
	C313.806305,149.454651 314.386566,127.477112 314.986359,105.501198 
	C315.083130,101.956291 313.475952,99.359818 310.506195,97.157494 
	C301.245667,90.290085 290.415039,87.872505 279.509644,85.454872 
	C253.508820,79.690659 227.482254,74.136055 200.849258,72.032692 
	C199.408234,71.918877 197.522385,70.213722 196.853455,68.778610 
	C193.697556,62.008057 190.881821,55.078442 187.967209,48.196041 
	C184.035736,38.912479 176.979874,34.375694 166.962494,34.170486 
	C124.150566,33.293499 81.340416,32.323261 38.526855,31.538013 
	C28.117392,31.347094 25.475904,34.169048 25.462543,44.515732 
	C25.347614,133.515060 25.252058,222.514435 25.195904,311.513824 
	C25.194130,314.327271 25.432428,317.190735 25.985411,319.945251 
	C27.543339,327.705536 31.664007,330.927094 39.487717,331.008545 
	C69.649666,331.322479 99.811287,331.667938 129.972839,332.017578 
	C130.585617,332.024658 131.196152,332.225006 130.712860,332.137939 
	C133.294144,350.820190 135.341812,368.999756 138.459137,386.994019 
	C140.460129,398.544403 143.670029,409.931610 147.037643,421.182526 
	C149.229446,428.505157 155.091003,432.387054 162.668884,433.277863 
	C182.178680,435.571350 201.723251,437.585602 221.206528,440.081360 
	C230.862381,441.318268 240.413864,443.369995 250.045883,445.058899 
	C250.045883,448.137146 250.016220,449.963165 250.050308,451.787994 
	C250.632217,482.947632 251.200806,514.107544 251.827835,545.266235 
	C251.954422,551.555908 252.536575,552.160217 258.716553,552.149170 
	C320.864960,552.037598 383.026855,552.907715 445.126740,549.275574 
	C451.207764,548.919861 454.887421,546.244934 456.825562,541.006897 
	C458.017181,537.786438 458.789276,534.256653 458.941437,530.829773 
	C460.368439,498.700073 461.620728,466.562653 462.947571,433.450653 
z"/>
<path fill="#1E1E1C" opacity="1.000000" stroke="none" 
	d="
M462.935547,433.939026 
	C461.620728,466.562653 460.368439,498.700073 458.941437,530.829773 
	C458.789276,534.256653 458.017181,537.786438 456.825562,541.006897 
	C454.887421,546.244934 451.207764,548.919861 445.126740,549.275574 
	C383.026855,552.907715 320.864960,552.037598 258.716553,552.149170 
	C252.536575,552.160217 251.954422,551.555908 251.827835,545.266235 
	C251.200806,514.107544 250.632217,482.947632 250.050308,451.787994 
	C250.016220,449.963165 250.045883,448.137146 250.045883,445.058899 
	C240.413864,443.369995 230.862381,441.318268 221.206528,440.081360 
	C201.723251,437.585602 182.178680,435.571350 162.668884,433.277863 
	C155.091003,432.387054 149.229446,428.505157 147.037643,421.182526 
	C143.670029,409.931610 140.460129,398.544403 138.459137,386.994019 
	C135.341812,368.999756 133.294144,350.820190 130.712860,332.137939 
	C131.196152,332.225006 130.585617,332.024658 129.972839,332.017578 
	C99.811287,331.667938 69.649666,331.322479 39.487717,331.008545 
	C31.664007,330.927094 27.543339,327.705536 25.985411,319.945251 
	C25.432428,317.190735 25.194130,314.327271 25.195904,311.513824 
	C25.252058,222.514435 25.347614,133.515060 25.462543,44.515732 
	C25.475904,34.169048 28.117392,31.347094 38.526855,31.538013 
	C81.340416,32.323261 124.150566,33.293499 166.962494,34.170486 
	C176.979874,34.375694 184.035736,38.912479 187.967209,48.196041 
	C190.881821,55.078442 193.697556,62.008057 196.853455,68.778610 
	C197.522385,70.213722 199.408234,71.918877 200.849258,72.032692 
	C227.482254,74.136055 253.508820,79.690659 279.509644,85.454872 
	C290.415039,87.872505 301.245667,90.290085 310.506195,97.157494 
	C313.475952,99.359818 315.083130,101.956291 314.986359,105.501198 
	C314.386566,127.477112 313.806305,149.454651 312.954102,171.421341 
	C312.836395,174.454193 311.668365,177.646667 310.251434,180.384796 
	C307.719879,185.276749 304.262573,188.575409 297.795258,188.285629 
	C280.700653,187.519669 263.577850,187.382828 246.215942,186.989899 
	C244.706284,176.063675 243.347702,166.230942 241.882950,155.629822 
	C232.740189,155.085190 223.644272,154.466034 214.538132,154.102814 
	C213.450134,154.059433 211.634216,155.171356 211.288483,156.148560 
	C205.031418,173.834061 198.285736,191.388687 193.060165,209.382431 
	C189.548584,221.474121 194.363068,224.542465 205.310013,225.735229 
	C216.863831,226.994141 228.592545,226.652740 240.245255,226.997345 
	C249.999741,227.285797 253.842346,229.642441 256.711121,238.933167 
	C262.726593,258.414642 266.783234,278.255859 266.119202,298.836487 
	C266.032104,301.536377 264.937439,302.522949 262.682434,303.415985 
	C253.723892,306.963715 244.876846,310.794434 235.901337,314.296936 
	C233.066132,315.403320 231.826920,316.741760 231.906204,320.022980 
	C232.159363,330.499756 232.000107,340.986450 232.000107,351.856384 
	C247.178162,353.595917 262.155975,355.394440 277.153961,357.005402 
	C289.069489,358.285278 301.092102,359.153107 312.089966,364.415161 
	C314.501373,365.568909 317.152740,368.016022 317.948029,370.440186 
	C321.309052,380.684906 324.013794,391.145020 326.949982,401.528809 
	C327.351135,402.947510 327.704498,404.379730 328.315125,406.698700 
	C339.101624,405.480713 349.801880,404.277771 360.500549,403.060791 
	C363.243103,402.748840 364.389862,401.116211 364.586548,398.422302 
	C365.035034,392.280670 366.048065,386.153778 366.101562,380.014587 
	C366.291565,358.202759 366.175720,336.388275 366.175720,314.120117 
	C357.430054,313.421539 349.038239,312.724365 340.641846,312.086456 
	C325.733948,310.953918 323.982666,309.344147 323.768188,294.278412 
	C323.531036,277.622253 323.713989,260.960144 323.713989,244.126022 
	C333.815338,239.974121 344.081146,239.254562 354.402832,239.213821 
	C381.755341,239.105881 408.291901,244.628891 434.702026,251.037476 
	C440.570374,252.461441 444.250763,255.774582 444.860168,261.765106 
	C445.549683,268.543335 445.904602,275.364685 446.146149,282.176483 
	C446.351318,287.961945 446.188477,293.760437 446.188477,300.368805 
	C474.786377,299.305115 503.166443,298.249512 531.749023,297.186401 
	C531.749023,284.808960 531.749023,273.696899 531.749023,261.537323 
	C521.191467,260.049011 510.444000,258.054535 499.605194,257.126678 
	C485.905396,255.953903 485.844971,256.328918 485.728027,242.738968 
	C485.527252,219.406891 485.335663,196.074661 485.203979,172.742126 
	C485.157532,164.512375 486.046509,156.409256 490.279266,149.123428 
	C491.060730,147.778275 492.785675,146.171432 494.147614,146.101746 
	C504.791962,145.557236 515.458862,145.471725 526.108826,145.012573 
	C532.896912,144.719925 537.202393,147.704712 539.162415,154.068054 
	C541.213623,160.727463 543.317139,167.386963 544.930786,174.157715 
	C545.675781,177.283615 547.137573,178.716217 550.150330,178.988846 
	C563.212219,180.171005 576.272217,181.374069 590.214905,182.650269 
	C590.214905,170.365173 590.516113,158.922394 590.111694,147.504608 
	C589.830078,139.553223 588.707214,131.620316 587.721375,123.708908 
	C586.977295,117.737984 583.129883,114.004112 577.522278,112.805473 
	C565.691650,110.276672 553.802124,107.936592 541.847412,106.100685 
	C530.699890,104.388733 519.427612,103.501945 508.232697,102.075203 
	C506.151184,101.809921 504.176544,100.706390 501.697662,99.828644 
	C501.697662,80.764809 501.568481,61.779240 501.765656,42.797062 
	C501.837555,35.873341 504.334747,33.707066 511.392639,33.867172 
	C532.715637,34.350880 554.033569,35.054695 575.356262,35.556210 
	C585.183716,35.787354 595.022095,35.973930 604.847229,35.773445 
	C617.393860,35.517429 629.091553,38.421795 639.309998,45.558788 
	C661.830933,61.288399 687.365845,67.767593 714.063782,71.006645 
	C720.343201,71.768486 726.627686,72.498466 732.920288,73.140137 
	C737.621521,73.619545 740.317871,75.203537 740.376831,80.822548 
	C740.804871,121.645432 741.686890,162.463531 742.123108,203.286377 
	C742.395569,228.782867 742.141663,254.284958 742.124634,279.784546 
	C742.118408,289.107941 741.588440,290.345490 732.575623,291.346680 
	C715.534790,293.239624 698.427795,294.560181 681.334167,295.943512 
	C673.532654,296.574860 665.690002,296.681000 657.879456,297.220184 
	C646.580627,298.000214 643.164734,301.078827 640.051819,311.812408 
	C636.720886,323.297516 632.811523,334.616302 629.552368,346.120331 
	C625.982422,358.721283 617.650330,365.499817 605.102783,368.087158 
	C578.395691,373.594299 551.679077,379.077484 525.075562,385.056427 
	C508.866730,388.699188 492.862000,393.249603 476.764313,397.387329 
	C468.931824,399.400543 464.444855,404.204254 464.045349,412.490906 
	C463.708466,419.478882 463.315643,426.464172 462.935547,433.939026 
z"/>
</svg>